<svg xmlns="http://www.w3.org/2000/svg" width="239.094" height="238.646" viewBox="0 0 239.094 238.646">
  <g id="Group_30" data-name="Group 30" transform="translate(-353.149 -264.567)">
    <path id="Rectangle_7" data-name="Rectangle 7" d="M.5,0H59.267a.5.5,0,0,1,.5.5v56.83a.5.5,0,0,1-.5.5H.5a.5.5,0,0,1-.5-.5V.5A.5.5,0,0,1,.5,0Z" transform="translate(451.805 363.642)" fill="#afccff"/>
    <path id="Path_200" data-name="Path 200" d="M497.817,322.193c-4.9-14.571-15.311-29.631-21.547-33.673-3.2-2.072-10.611-3.736-17.074-4.875-1.778-.318-3.488-.586-5.015-.816-.227-.038-.452-.07-.662-.1-1.291-.2-2.433-.35-3.357-.463-.1,1.16-.256,2.838-.443,4.875-.326,3.666-.769,8.463-1.239,13.382-.224,2.352-.53,5.275-.866,8.387-.428,3.847-.9,8-1.34,11.7-.058.51-.114,1.017-.175,1.518v.006c-.449,3.8-.819,6.974-1.02,8.617v.012c-.093.781-.149,1.221-.149,1.221-.131-.344-.271-.726-.4-1.145-.664-2.028-1.373-4.875-2.078-8.189-.14-.641-.277-1.3-.411-1.97-.752-3.666-1.495-7.766-2.2-11.89-1.256-7.4-2.372-14.883-3.124-20.052-.344-2.416-.6-4.328-.761-5.493-.449.064-.892.137-1.32.219-.239.038-.469.082-.694.134a50.24,50.24,0,0,0-8.577,2.4,51.165,51.165,0,0,0-5.9,2.646c-5.2,2.722-26.234,26.4-27.7,28.061l-.087.093s4.039-16.646,1.218-22.031l-1.772-1.92-5.45-5.913a55.181,55.181,0,0,0-10.87,16.815,30.559,30.559,0,0,0-1.979,15.745c0,.277.632,8.212,4.115,13.23a9.4,9.4,0,0,0,4.205,3.541c7.224,2.818,18.246-2.323,26.437-6.977,7.058-4,13.026-10.357,14.559-12.056.251-.277.385-.434.385-.434l.093,1.294.507,6.845v.038l2.334,31.852h78.467S502.7,336.758,497.817,322.193Zm-25.831,17.628s.857-6.493,1.469-11.389c.449-3.6.9-8.649,1.107-11.071.073-.877.12-1.413.12-1.413s.052.108.16.3c.568,1.072,2.527,4.779,4.488,8.632,2.961,5.811,5.47,12.447,5.47,12.447C483.459,337.213,471.986,339.821,471.986,339.821Z" transform="translate(37.112 33.88)" fill="#0c1498"/>
    <path id="Path_201" data-name="Path 201" d="M420.237,308.283l-.6-8.139s-6.735,7.836-14.944,12.49c-8.192,4.654-19.213,9.795-26.437,6.977a9.4,9.4,0,0,1-4.205-3.541c4.951,2.092,12.636.452,22.838-4.418,12.581-6,22.276-20.685,22.276-20.685A116.752,116.752,0,0,1,420.237,308.283Z" transform="translate(40.008 50.535)" fill="#017"/>
    <path id="Path_202" data-name="Path 202" d="M424.494,283.843a50.866,50.866,0,0,1-17.642,5.068c-8.783.708-14.157-1.6-16.185-2.713a51.559,51.559,0,0,1,10.59-2.757c.836-.131,1.7-.251,2.579-.35l9.212-.93s.909.1,2.413.3C417.578,282.742,420.895,283.205,424.494,283.843Z" transform="translate(71.815 33.681)" fill="#017"/>
    <path id="Path_203" data-name="Path 203" d="M420.1,302.219a59.13,59.13,0,0,0-8.078-9.771c-.067.492-4.9,8.606-5.761,19.164s-.8,11.645-.8,11.645l21.988-5.318S423.777,307.855,420.1,302.219Zm-11.141,18.112s.857-6.493,1.469-11.389,1.227-12.484,1.227-12.484,2.32,4.368,4.648,8.932c2.961,5.811,5.47,12.447,5.47,12.447C420.437,317.723,408.964,320.331,408.964,320.331Z" transform="translate(100.135 53.37)" fill="#017"/>
    <g id="Group_6" data-name="Group 6" transform="translate(466.527 317.34)">
      <path id="Path_204" data-name="Path 204" d="M405.091,321.863l-11.357-21.574a.266.266,0,0,1,.038-.3l4.389-5.126-5.962-3.086a.28.28,0,0,1-.131-.16.313.313,0,0,1,.012-.207l4.505-8.6c.224-.052.455-.1.694-.134l-4.581,8.742,6.027,3.112a.292.292,0,0,1,.146.2.281.281,0,0,1-.064.23l-4.494,5.243,10.369,19.694C404.814,320.563,404.951,321.222,405.091,321.863Z" transform="translate(-392.054 -282.676)" fill="#6077f1"/>
    </g>
    <g id="Group_7" data-name="Group 7" transform="translate(483.212 316.609)">
      <path id="Path_205" data-name="Path 205" d="M410.331,291.552a.257.257,0,0,1-.137.163l-4.823,2.238,4.126,5.114a.273.273,0,0,1,.026.3L397.78,321.822c.061-.5.117-1.008.175-1.518l11-21.035-4.231-5.243a.273.273,0,0,1,.1-.425l4.884-2.267-4.5-8.909c.21.029.434.061.662.1l4.456,8.812A.229.229,0,0,1,410.331,291.552Z" transform="translate(-397.78 -282.425)" fill="#6077f1"/>
    </g>
    <g id="Group_8" data-name="Group 8" transform="translate(458.164 326.108)">
      <path id="Path_206" data-name="Path 206" d="M390.808,311.409a.233.233,0,0,1-.049.14l-.093-1.294s-.134.157-.385.434c.023-4.66-1.078-24.505-1.1-24.715a.281.281,0,0,1,.265-.288.277.277,0,0,1,.289.257C389.791,286.872,390.995,308.582,390.808,311.409Z" transform="translate(-389.185 -285.685)" fill="#6077f1"/>
    </g>
    <g id="Group_9" data-name="Group 9" transform="translate(511.299 328.86)">
      <path id="Path_207" data-name="Path 207" d="M412.576,287.1c-1.189,1.18-2.932,5.735-4.494,20.705,0,.029-.009.061-.009.087a7.249,7.249,0,0,1-.119.947.242.242,0,0,1-.16.166.287.287,0,0,1-.1.02.334.334,0,0,1-.09-.009.273.273,0,0,1-.178-.332c.012-.079.044-.411.1-.938,1.271-12.141,2.835-19.222,4.648-21.043a.289.289,0,0,1,.4,0A.3.3,0,0,1,412.576,287.1Z" transform="translate(-407.418 -286.629)" fill="#6077f1"/>
    </g>
    <path id="Path_208" data-name="Path 208" d="M473.111,392.7c-.367,5.269,0,14.816,0,14.816H424.138s-2.32-27.784-3.421-43.334-5.263-18.237-5.263-18.237,3.176-.37,3.176-1.355-3.176-2.32-3.176-2.32,3.669-2.821,3.669-3.672-4.036-2.7-4.036-3.92,4.4-4.284,4.526-4.651-4.651-3.063-4.651-3.063,3.549-3.054,2.2-5.144-4.156-7.83-4.156-7.83h57.777s-6.854,7.347-5.994,8.693,6.49,4.4,6.49,4.4a36.65,36.65,0,0,0-3.436,1.839c-.848.609-.848,2.937.863,4.406s5.636,6.117,5.636,6.117-2.824,7.836-2.209,14.577c.612,6.723,1.958,16.888,1.958,16.888l-6.857,2.69a50.541,50.541,0,0,0,6.245,4.9c2.206,1.227,4.188,1.961,4.188,3.8S473.478,387.436,473.111,392.7Z" transform="translate(114.577 94.6)" fill="#d5dcff"/>
    <path id="Path_209" data-name="Path 209" d="M445.049,328.552a.274.274,0,0,1-.274.283H423.559c0,.052.006.108.006.172.525,10.031-1.521,23.328-1.539,23.462a.286.286,0,0,1-.274.233l-.044-.009a.263.263,0,0,1-.227-.312c.02-.134,2.054-13.376,1.539-23.363a60.514,60.514,0,0,0-2.6-15.031H421c.329,1.061.784,2.643,1.212,4.666,1.492.367,13.228,3.165,18.129,2.655a.261.261,0,0,1,.3.236.276.276,0,0,1-.242.306c-.431.038-.909.067-1.422.067-5.286,0-14.527-2.154-16.628-2.661a67.332,67.332,0,0,1,1.174,9.019h21.253A.269.269,0,0,1,445.049,328.552Z" transform="translate(128.771 94.6)" fill="#7caef7"/>
    <g id="Group_10" data-name="Group 10" transform="translate(553.075 454.275)">
      <path id="Path_210" data-name="Path 210" d="M444.229,332.433c-3.955,0-21.46-2.122-22.232-2.218a.275.275,0,0,1-.242-.309.279.279,0,0,1,.306-.239c.2.026,19.653,2.378,22.535,2.2a.276.276,0,0,1,.032.551C444.521,332.427,444.384,332.433,444.229,332.433Z" transform="translate(-421.753 -329.665)" fill="#7caef7"/>
    </g>
    <g id="Group_11" data-name="Group 11" transform="translate(553.075 458.134)">
      <path id="Path_211" data-name="Path 211" d="M441.123,333.014c-4.185,0-18.971-1.46-19.123-1.477a.274.274,0,1,1,.055-.545c.149.009,14.909,1.472,19.068,1.472a.275.275,0,1,1,0,.551Z" transform="translate(-421.753 -330.989)" fill="#7caef7"/>
    </g>
    <path id="Path_212" data-name="Path 212" d="M422.218,288.962a10.218,10.218,0,0,1-.778,2.471s-1.227-7.836-3.549-9.672a6.717,6.717,0,0,0-3.788-1.652,10.25,10.25,0,0,0-5.557,1.652c-4.607,2.573-9.751,3.3-12.572,1.594s-5.015-2.084-6.356-.367a2.443,2.443,0,0,0-.321.536c-.959,2.014-.638,6.073-.638,6.073s-2.6-5.455-1.865-9.891,3.922-12.636,14.816-14.711a21.027,21.027,0,0,1,5.5-.385c7.178.481,10.9,5.12,12.991,8.7C422.247,277,423.188,284.194,422.218,288.962Z" transform="translate(64.153 0)" fill="#2c0e78"/>
    <path id="Path_213" data-name="Path 213" d="M408.791,288.933a10.215,10.215,0,0,1-.778,2.471s-1.227-7.836-3.549-9.672a6.717,6.717,0,0,0-3.788-1.652c-.224-5.062-4.671-12.117-7-15.5,7.178.481,10.9,5.12,12.991,8.7C408.82,276.973,409.761,284.165,408.791,288.933Z" transform="translate(77.58 0.029)" fill="#200966"/>
    <path id="Path_214" data-name="Path 214" d="M381.245,309.849l.087-.093a32.171,32.171,0,0,1-3.275,4.995c-.367.242.86-5.511,1.469-11.753.5-5.077,1-13.956,1.166-17.1l1.772,1.92C385.284,293.2,381.245,309.849,381.245,309.849Z" transform="translate(47.55 40.83)" fill="#017"/>
    <path id="Path_215" data-name="Path 215" d="M398.883,288.113c3.182,0,4.9-3.573,5.514-5.951l-9.212.93C395.622,285.283,396.49,288.113,398.883,288.113Z" transform="translate(80.465 33.681)" fill="#0d2175"/>
    <path id="Path_216" data-name="Path 216" d="M398.346,282.162s.909.1,2.413.3C399.255,282.264,398.352,282.162,398.346,282.162Z" transform="translate(86.515 33.681)" fill="#3f5fc4"/>
    <path id="Path_217" data-name="Path 217" d="M408.5,282.465c-.1,1.16-.257,2.838-.443,4.875-.152,1.646-.321,3.517-.5,5.531-.015.227-.041.455-.061.691-.213,2.267-.44,4.7-.676,7.16-.224,2.352-.53,5.275-.866,8.387-1.157,10.477-2.684,23.072-2.684,23.072-1.591-4.115-3.459-13.586-5.088-23.194-.9-5.263-1.716-10.564-2.381-15.043-.044-.256-.079-.507-.108-.758-.236-1.536-.446-2.964-.635-4.252-.344-2.416-.6-4.328-.761-5.493.836-.131,1.7-.251,2.579-.35.373,1.886,1.073,4.229,2.766,4.858a2.408,2.408,0,0,0,.583.14,2.31,2.31,0,0,0,.35.023,3.862,3.862,0,0,0,.839-.09,3.2,3.2,0,0,0,.609-.184c2.27-.863,3.555-3.689,4.065-5.677C406.091,282.162,407,282.264,408.5,282.465Z" transform="translate(78.771 33.681)" fill="#d5dcff"/>
    <path id="Path_218" data-name="Path 218" d="M408.5,282.465c-.1,1.16-.257,2.838-.443,4.875a71.815,71.815,0,0,1-13,1.594c-.344-2.416-.6-4.328-.761-5.493.836-.131,1.7-.251,2.579-.35.437,2.191,1.306,5.021,3.7,5.021,3.182,0,4.9-3.573,5.514-5.951C406.1,282.162,407,282.264,408.5,282.465Z" transform="translate(78.771 33.681)" fill="#aebdf4"/>
    <path id="Path_219" data-name="Path 219" d="M404.816,284.943c0,1.276-.02,2.451-.073,3.392a10.728,10.728,0,0,1-.2,1.734c-.612,2.378-2.331,5.951-5.514,5.951-1.944,0-2.876-1.865-3.4-3.742-.122-.431-.216-.866-.3-1.279-.09-.437-.16-.86-.23-1.215a9.146,9.146,0,0,0,5.4-3.188,31.826,31.826,0,0,0,4.185-8.565C404.749,280.065,404.816,282.659,404.816,284.943Z" transform="translate(80.314 25.773)" fill="#f3b6ab"/>
    <path id="Path_220" data-name="Path 220" d="M404.816,284.943c0,1.276-.02,2.451-.073,3.392a50.9,50.9,0,0,1-9.11,3.943c-.122-.431-.216-.866-.3-1.279-.09-.437-.16-.86-.23-1.215a9.146,9.146,0,0,0,5.4-3.188,31.826,31.826,0,0,0,4.185-8.565C404.749,280.065,404.816,282.659,404.816,284.943Z" transform="translate(80.314 25.773)" fill="#f4948e"/>
    <path id="Path_221" data-name="Path 221" d="M426.5,283.44a5.594,5.594,0,0,1-5.263,3.55,39.267,39.267,0,0,1-1.7,6.615,31.828,31.828,0,0,1-4.185,8.565,8.923,8.923,0,0,1-4.628,3c-.248.07-.5.128-.769.189a16.638,16.638,0,0,1-9.783-1.233c-6.854-2.815-9.051-8.568-11.75-18.362-1.472-5.365-1.244-9.646-.437-12.438a2.443,2.443,0,0,1,.321-.536c1.34-1.716,3.547-1.349,6.356.367s7.965.979,12.572-1.594c2.588-1.445,4.485-1.842,6.064-1.6a7.144,7.144,0,0,1,3.281,1.6c2.323,1.836,3.549,9.672,3.549,9.672a10.218,10.218,0,0,0,.778-2.471c.612-1.92,2.133-5.913,4.362-6.1C428.207,272.425,427.843,279.766,426.5,283.44Z" transform="translate(65.463 10.199)" fill="#f3b6ab"/>
    <path id="Path_222" data-name="Path 222" d="M411.141,283.4a5.594,5.594,0,0,1-5.263,3.549,39.269,39.269,0,0,1-1.7,6.615A31.826,31.826,0,0,1,400,302.127a8.923,8.923,0,0,1-4.628,3c2.745-2.725,7.862-11.645,7.329-18.085-.533-6.286-.7-11.193-4.756-17.124a7.144,7.144,0,0,1,3.281,1.6c2.323,1.836,3.549,9.672,3.549,9.672a10.216,10.216,0,0,0,.778-2.471c.612-1.92,2.133-5.913,4.362-6.1C412.852,272.382,412.488,279.723,411.141,283.4Z" transform="translate(80.819 10.241)" fill="#f4948e" opacity="0.5"/>
    <path id="Path_223" data-name="Path 223" d="M393.964,283c-.848.941-1.489,1.6-1.489,1.6a.567.567,0,0,1,.119.038c.277.093.967.5.519,2.008a6.526,6.526,0,0,1-.4,1.008l.041.119a8.645,8.645,0,0,1,.568,4.529,3.631,3.631,0,0,1-.361.985.141.141,0,0,1,.02.052,4.165,4.165,0,0,1,.332,1.629c.044,1.352-.405,3.389-2.681,5.662-4.042,4.045-6.368,4.654-6.368,4.654s-.446-.452-1.131-1.139a78.283,78.283,0,0,1-6.091-6.694s4.042-6.977,5.263-9.8c1.157-2.658,1.445-9.6,2.713-10.646a.554.554,0,0,1,.23-.122c1.41-.356,1.909,6.612,1.952,7.183v.038s9.55-8.349,10.651-7.236C398.615,277.637,395.808,280.979,393.964,283Z" transform="translate(45.745 23.361)" fill="#f3b6ab"/>
    <path id="Path_224" data-name="Path 224" d="M386.635,288.678c-4.042,4.045-6.367,4.654-6.367,4.654s-.446-.452-1.131-1.139c4.333-1.935,8.335-6.723,10.179-9.177C389.36,284.368,388.911,286.405,386.635,288.678Z" transform="translate(49.746 35.315)" fill="#f4948e"/>
    <path id="Path_225" data-name="Path 225" d="M381.967,284a17.526,17.526,0,0,1-1.343,1.445c1.061-2.567-.251-6.834-.839-8.506a.553.553,0,0,1,.23-.122C381.424,276.464,381.923,283.432,381.967,284Z" transform="translate(50.985 23.429)" fill="#f4948e"/>
    <path id="Path_226" data-name="Path 226" d="M426.907,309.258l21.487,106.561h-7.715L414.539,309.2Z" transform="translate(117.512 85.433)" fill="#fbc2c2"/>
    <path id="Path_227" data-name="Path 227" d="M380.323,309.258,358.837,415.819h7.712L392.692,309.2Z" transform="translate(10.888 85.433)" fill="#fbc2c2"/>
    <path id="Path_228" data-name="Path 228" d="M398.042,321.422,379.68,393.035h-4.775l14.69-71.614Z" transform="translate(41.646 108.831)" fill="#fbc2c2"/>
    <path id="Path_229" data-name="Path 229" d="M402.336,321.422,420.7,393.035h4.778l-14.7-71.614Z" transform="translate(94.153 108.831)" fill="#fbc2c2"/>
    <path id="Path_230" data-name="Path 230" d="M464.7,324.9c0,1.262-.662,2.288-1.469,2.288H379.858c-.81,0-1.466-1.026-1.466-2.288v-4.2c0-1.262.656-2.288,1.466-2.288H463.23c.807,0,1.469,1.026,1.469,2.288Z" transform="translate(48.32 103.07)" fill="#afccff"/>
    <path id="Path_231" data-name="Path 231" d="M388.054,276.677c-.793-.224.979-2.815,3.427-3.185s4.648-.245,4.648.615S390.624,277.412,388.054,276.677Z" transform="translate(66.448 16.714)" fill="#2c0e78"/>
    <path id="Path_232" data-name="Path 232" d="M393.3,275.342c-1.425-.367,1.346-2.323,4.162-3.06s4.925-.487,4.91.49S396.609,276.2,393.3,275.342Z" transform="translate(76.12 13.95)" fill="#2c0e78"/>
    <path id="Path_233" data-name="Path 233" d="M466.1,334.443v35.013H411.511l-.418-14.537-.014-.549-.552-19.193,48.263-.64Z" transform="translate(109.831 133.757)" fill="#233fe3"/>
    <path id="Path_234" data-name="Path 234" d="M443.352,334.443v35.013h-20.94l13.626-34.919Z" transform="translate(132.582 133.757)" fill="#0c35ba"/>
    <path id="Path_235" data-name="Path 235" d="M481.368,329.883c-1.343,7.836-13.7,10.535-13.7,10.535.731,6.117,1.466,20.073-6.248,32.065s-23.5,31.951-23.5,31.951l-2.186-.055-2.346-.061s3.182-20.816,4.284-27.67,5.278-36.229,5.278-36.229H395.312s2.323,5.257,2.081,21.174c-.2,12.653-7.728,40.638-9.564,42.107a7.377,7.377,0,0,1-1.83,1,29.92,29.92,0,0,1-4.9,1.457s-9.538-62.559-10.15-70.273-1.346-15.67,2.328-18.12,42.661-8.565,42.661-8.565h63.109S482.723,322.052,481.368,329.883Z" transform="translate(33.113 85.433)" fill="#0c1498"/>
    <path id="Path_236" data-name="Path 236" d="M391.974,354.364H369.316c3.31-3.316,13.95-10.281,13.95-10.281l4.258-1.559,2.471-.9C391.222,345.423,391.974,354.364,391.974,354.364Z" transform="translate(30.947 147.506)" fill="#233fe3"/>
    <path id="Path_237" data-name="Path 237" d="M407.169,353.958H387.382l13.586-12.12,2.363.061,2.168.055C405.869,344.286,407.169,353.958,407.169,353.958Z" transform="translate(65.528 147.911)" fill="#233fe3"/>
    <g id="Group_12" data-name="Group 12" transform="translate(491.319 377.46)">
      <path id="Path_238" data-name="Path 238" d="M400.839,306.38a.276.276,0,0,1-.044-.548,104.352,104.352,0,0,0,11.593-2.515.276.276,0,0,1,.154.53,105.564,105.564,0,0,1-11.665,2.527Z" transform="translate(-400.562 -303.306)" fill="#6077f1"/>
    </g>
    <path id="Path_239" data-name="Path 239" d="M404.366,305.2c-1.157,10.477-2.684,23.072-2.684,23.072-1.591-4.115-3.459-13.586-5.088-23.194l2.025-11.823-3.488-4.517,3.855-4.534,4.278,3.672-2.835,5.144Z" transform="translate(80.362 37.589)" fill="#233fe3"/>
    <rect id="Rectangle_8" data-name="Rectangle 8" width="181.058" height="4.59" transform="translate(377.437 390.1)" fill="#afccff"/>
    <path id="Path_240" data-name="Path 240" d="M419.857,334H364.163l-1.554-25.311L361.716,294l56.064,1.32.4,7.493Z" transform="translate(16.399 56.343)" fill="#d5dcff"/>
    <path id="Path_241" data-name="Path 241" d="M381.584,306.176h14.078V310.7H381.829Z" transform="translate(54.43 79.647)" fill="#aebdf4"/>
    <path id="Path_242" data-name="Path 242" d="M463.549,306.568l-.982,10.086-14.531-.063h-.546l-44.168-.182-.988-8.076,47.489-5.205.569-.057.054-.006Z" transform="translate(94.149 73.692)" fill="#6077f1"/>
    <path id="Path_243" data-name="Path 243" d="M405.248,309.317c.064-.009-.6-4.628-.6-4.628l31.706-5.825,22.771,2.937v3.217L446.149,301.8Z" transform="translate(98.573 65.651)" fill="#fcc2c2"/>
    <path id="Path_244" data-name="Path 244" d="M416.617,340.407s.988-8.818,8.821-8.818,8.754,8.757,8.754,8.757H431.31s-.076-5.86-5.866-5.86-5.84,5.843-5.84,5.843Z" transform="translate(121.489 128.293)" fill="#0c1498"/>
    <path id="Path_245" data-name="Path 245" d="M401.489,396.736l-13.857.42-.548.012-30.4.912s-.732-15.366-1.649-17.5c-.245-.551-.478-1.035-.708-1.454-.055-.1-.114-.2-.166-.3a9.718,9.718,0,0,0-1.014-1.495l7.58-3.855s-2.94-3.182-2.94-3.672a1.684,1.684,0,0,1,.493-.979l-1.836-.731s.985-5.144.49-6.37a18.275,18.275,0,0,1-.49-6.977c.367-1.839-2.087-6.245-2.087-6.245s5.511-1.346,4.9-3.063-2.206-4.039-1.594-5.624a25.415,25.415,0,0,0,.863-2.57l-2.573-9.672s5.633-2.7,5.633-3.675-1.1-1.469-1.1-1.469l28.5-2.194.586-.047,9.1-.7v16.159a7.765,7.765,0,0,1,.487,3.3c-.245,1.343-3.788,2.328-3.788,2.328l3.3,3.789s-1.714,2.821-1.224,4.657,3.3,2.937,3.427,3.308a12.7,12.7,0,0,1-.618,2.684l2.57,1.722s-1.215,13.589-.606,15.058a54.6,54.6,0,0,1,1.329,6.117C403.821,379.592,401.489,396.736,401.489,396.736Z" transform="translate(0 105.133)" fill="#d5dcff"/>
    <g id="Group_13" data-name="Group 13" transform="translate(462.304 292.502)">
      <path id="Path_246" data-name="Path 246" d="M390.927,288.5H390.9a.375.375,0,0,1-.254-.143c-.2-.3.259-4.992,1.364-13.959a.275.275,0,1,1,.545.07c-.577,4.683-1.373,11.613-1.425,13.3a52.235,52.235,0,0,0,3.756-4.211.28.28,0,0,1,.391-.038.277.277,0,0,1,.038.388C391.682,288.325,391.1,288.5,390.927,288.5Z" transform="translate(-390.605 -274.153)" fill="#0c1498"/>
    </g>
    <g id="Group_14" data-name="Group 14" transform="translate(466.691 305.111)">
      <path id="Path_247" data-name="Path 247" d="M392.431,282.438l-.21-.192-.111-.259c1.1-.766,4.972-3.281,8.786-3.506a.274.274,0,0,1,.291.259.281.281,0,0,1-.259.294C397.263,279.244,393.5,281.692,392.431,282.438Z" transform="translate(-392.111 -278.479)" fill="#ff435e"/>
    </g>
    <g id="Group_15" data-name="Group 15" transform="translate(487.273 286.384)">
      <path id="Path_248" data-name="Path 248" d="M399.452,279.475a.283.283,0,0,1-.277-.271,12.764,12.764,0,0,1,2.1-6.872c.035-.064.064-.1.076-.128a.276.276,0,0,1,.492.248c-.015.029-.05.085-.1.169a12.19,12.19,0,0,0-2.017,6.572.274.274,0,0,1-.268.283Z" transform="translate(-399.173 -272.053)" fill="#0c1498"/>
    </g>
    <g id="Group_16" data-name="Group 16" transform="translate(487.466 288.399)">
      <path id="Path_249" data-name="Path 249" d="M400.945,276.519a3.433,3.433,0,0,1-1.579-.507.274.274,0,0,1-.082-.379.268.268,0,0,1,.376-.087c.015.009,1.428.883,1.947.084.437-.679-.889-1.99-1.387-2.4a.277.277,0,0,1,.35-.428c.236.192,2.282,1.909,1.495,3.124A1.249,1.249,0,0,1,400.945,276.519Z" transform="translate(-399.24 -272.745)" fill="#0c1498"/>
    </g>
    <g id="Group_17" data-name="Group 17" transform="translate(474.466 320.417)">
      <path id="Path_250" data-name="Path 250" d="M406.643,289.867c-.015.227-.041.455-.061.691l-6.082-5.54-.673-.606c-.14.178-.312.405-.516.673-1.221,1.632-3.447,4.578-4.424,5.854-.044-.256-.079-.507-.108-.758.927-1.221,2.541-3.363,3.949-5.237.291-.382.577-.755.839-1.107a.272.272,0,0,1,.192-.1.278.278,0,0,1,.21.067l1.139,1.035Z" transform="translate(-394.779 -283.732)" fill="#0c1498"/>
    </g>
    <path id="Path_251" data-name="Path 251" d="M438.488,329.883c-1.343,7.836-13.7,10.535-13.7,10.535.731,6.117,1.466,20.073-6.248,32.065s-23.5,31.951-23.5,31.951l-2.186-.055c3.267-4.5,14.7-20.318,18.432-27.731,4.322-8.571,10.071-26.315,10.252-35.5S420.49,327.2,420.49,327.2s8.329-.618,12.123-2.821c2.882-1.676.962-10.864-.044-15.177h3.6S439.843,322.052,438.488,329.883Z" transform="translate(75.993 85.433)" fill="#017"/>
    <g id="Group_18" data-name="Group 18" transform="translate(433.996 306.296)">
      <path id="Path_252" data-name="Path 252" d="M385.116,280.553a.567.567,0,0,1,.119.038l-3.89,3.442a.277.277,0,0,1-.388-.026.28.28,0,0,1,.029-.39l5.254-4.66a.272.272,0,0,1,.364,0C385.757,279.9,385.116,280.553,385.116,280.553Z" transform="translate(-380.891 -278.886)" fill="#0c1498"/>
    </g>
    <g id="Group_19" data-name="Group 19" transform="translate(434.361 309.995)">
      <path id="Path_253" data-name="Path 253" d="M385.117,281.177l.041.119a59,59,0,0,1-3.683,4.91.3.3,0,0,1-.187.07.266.266,0,0,1-.207-.1.279.279,0,0,1,.032-.388,68.393,68.393,0,0,0,4.089-5.514.273.273,0,0,1,.312-.108A6.532,6.532,0,0,1,385.117,281.177Z" transform="translate(-381.017 -280.155)" fill="#0c1498"/>
    </g>
    <g id="Group_20" data-name="Group 20" transform="translate(435.371 315.665)">
      <path id="Path_254" data-name="Path 254" d="M384.7,283.086a.142.142,0,0,1,.02.052c-1.046.962-2.326,2.151-2.87,2.792a.259.259,0,0,1-.213.093.249.249,0,0,1-.175-.067.27.27,0,0,1-.035-.388,48.792,48.792,0,0,1,3.634-3.468A3.631,3.631,0,0,1,384.7,283.086Z" transform="translate(-381.363 -282.101)" fill="#0c1498"/>
    </g>
    <g id="Group_21" data-name="Group 21" transform="translate(481.466 364.641)">
      <path id="Path_255" data-name="Path 255" d="M397.907,298.907l-.181,25.706a.272.272,0,0,1-.274.274.268.268,0,0,1-.271-.277l.175-25.627c.131.42.271.8.4,1.145C397.758,300.128,397.813,299.688,397.907,298.907Z" transform="translate(-397.181 -298.907)" fill="#6077f1"/>
    </g>
    <g id="Group_22" data-name="Group 22" transform="translate(497.253 414.677)">
      <path id="Path_256" data-name="Path 256" d="M406.337,329.689a.274.274,0,0,1-.274-.277c0-6.021-3.4-12.866-3.436-12.939a.275.275,0,0,1,.493-.245c.035.067,3.494,7.029,3.494,13.184A.275.275,0,0,1,406.337,329.689Z" transform="translate(-402.598 -316.077)" fill="#6077f1"/>
    </g>
    <g id="Group_23" data-name="Group 23" transform="translate(500.19 379.266)">
      <path id="Path_257" data-name="Path 257" d="M405.075,313.019a.277.277,0,0,1-.265-.2l-1.195-4.537a.262.262,0,0,1,.044-.224.272.272,0,0,1,.2-.114l38.47-4.013a.317.317,0,0,1,.216.067.306.306,0,0,1,.085.207v7.991a.27.27,0,0,1-.268.274l-37.278.554Zm-.842-4.569,1.055,4.016,36.789-.548v-7.411Z" transform="translate(-403.606 -303.926)" fill="#0c1498"/>
    </g>
    <g id="Group_24" data-name="Group 24" transform="translate(541.639 376.762)">
      <path id="Path_258" data-name="Path 258" d="M420.732,303.066l-2.356,13.521h-.546l2.334-13.464Z" transform="translate(-417.829 -303.066)" fill="#0c1498"/>
    </g>
    <path id="Path_259" data-name="Path 259" d="M418.184,302.815l-55.574,5.877L361.716,294l56.064,1.32Z" transform="translate(16.399 56.343)" fill="#aebdf4"/>
    <g id="Group_25" data-name="Group 25" transform="translate(520.91 472.089)">
      <path id="Path_260" data-name="Path 260" d="M410.716,341.281l.015.551h8.585v8.049a.276.276,0,0,0,.277.274h5.753a.276.276,0,0,0,.277-.274v-8.049h11.447v14.536h.548V341.832h1.346v14.536h.551V341.832h11.141v7.559a.277.277,0,0,0,.274.28h5.391a.278.278,0,0,0,.271-.28v-7.559h9.15v-.551Zm14.35,8.323h-5.2v-7.772h5.2Zm30.975-.492H451.2v-7.28h4.838Z" transform="translate(-410.716 -325.244)" fill="#6077f1"/>
      <path id="Path_261" data-name="Path 261" d="M420.53,345.876a.276.276,0,0,0,.271-.277v-9.547a.274.274,0,0,0-.548,0V345.6A.275.275,0,0,0,420.53,345.876Z" transform="translate(-392.46 -335.778)" fill="#6077f1"/>
    </g>
    <path id="Path_262" data-name="Path 262" d="M400.58,387.965a19.537,19.537,0,0,1-5.936,1.005c-.172,0-.358,0-.533-.009-3.226-.125-6.236-.116-7.128-.035l.009,7.772-.548.012V383.541a57.354,57.354,0,0,0,.994-5.756,44.872,44.872,0,0,0-9.693.05c-3.29.265-6.335.729-9.034,1.142a51.933,51.933,0,0,1-6.472.74,6.748,6.748,0,0,1-.962-.061c-2.375-.32-6.6-.868-7.588-.991-.128-.023-.2-.032-.2-.032l.038-.265.038-.274s5.094.644,7.792,1.017c1.44.192,4.013-.2,7.277-.688,2.7-.408,5.767-.865,9.072-1.139a44.5,44.5,0,0,1,9.8-.044,36.05,36.05,0,0,0,.216-3.733c0-.417-.015-.836-.041-1.262-1.527-.02-9.593-.125-15.943.306-1.174.082-2.3.119-3.34.119a39.557,39.557,0,0,1-8.74-.86.264.264,0,0,1-.2-.329.272.272,0,0,1,.326-.2,42.7,42.7,0,0,0,11.916.729c6.315-.437,14.329-.344,15.955-.315-.152-2.057-.487-4.173-.784-5.957a16.913,16.913,0,0,1-.425-4.281c.017-.087.044-.172.067-.254a.249.249,0,0,1-.055-.271.266.266,0,0,1,.271-.184,5.326,5.326,0,0,1,1.1-1.209c.484-.434.9-.8.906-1.218.015-.376-.108-1.545-.259-2.908-.044-.452-.093-.915-.143-1.381a50.7,50.7,0,0,1-11.272,2.454c-5.49.393-16.692,2.1-16.809,2.11l-.038.009a.276.276,0,0,1-.274-.236.271.271,0,0,1,.23-.312c.108-.015,11.333-1.722,16.853-2.124a49.279,49.279,0,0,0,11.252-2.468,23.342,23.342,0,0,1-.2-4.972,20.761,20.761,0,0,0,.635-3.541,65.98,65.98,0,0,1-8.955,3.6c-5.324,1.693-16.29,5.327-16.4,5.365a.279.279,0,0,1-.087.009.275.275,0,0,1-.082-.536c.114-.035,11.077-3.675,16.4-5.365a64.237,64.237,0,0,0,9.145-3.7,4.892,4.892,0,0,0-.146-1.236c-.393-1.524-3.785-3.287-4.147-3.34a.275.275,0,0,1-.23-.122c-.143-.2-.087-.408.6-2.425.466-1.364,1.087-3.209,1.553-4.995-.688-.038-2.64-.1-7.169.023-1.565.047-3.238.064-4.843.064-4.631,0-8.827-.134-8.882-.134a.278.278,0,0,1,.017-.557c.076.006,7.65.242,13.694.082,4.814-.134,6.711-.064,7.32-.026a13.549,13.549,0,0,0,.484-3.442q-.009-.468.017-.962a52.23,52.23,0,0,0-6.67.857,105.428,105.428,0,0,1-14.125.985.275.275,0,0,1-.268-.277.272.272,0,0,1,.268-.271,105.131,105.131,0,0,0,14.035-.979,49.751,49.751,0,0,1,6.79-.866,38.636,38.636,0,0,1,1.32-6.933l.586-.047a32.637,32.637,0,0,0-1.39,8.477,14.837,14.837,0,0,1-.562,3.78V332l-.006.026c-.478,1.909-1.154,3.9-1.647,5.353-.265.763-.53,1.545-.609,1.891,1.005.361,3.981,2.107,4.4,3.684a5.9,5.9,0,0,1,.16,1.515v.006a18.706,18.706,0,0,1-.665,4.144c-.216.88.143,4.264.408,6.732.146,1.443.271,2.582.257,2.984-.009.653-.536,1.122-1.09,1.617a5.5,5.5,0,0,0-.883.924,14.347,14.347,0,0,0,5.409-.125c3.762-.726,6.848-1.1,6.88-1.107a.289.289,0,0,1,.3.245.283.283,0,0,1-.242.306c-.029,0-3.095.376-6.837,1.1a17.369,17.369,0,0,1-3.319.329,11.361,11.361,0,0,1-2.454-.236c-.02.064-.05.117-.067.178a17.894,17.894,0,0,0,.434,4.083c.306,1.888.673,4.15.8,6.324v.009c.038.519.058,1.029.058,1.527a50.46,50.46,0,0,1-1.294,10.1v.667a30.406,30.406,0,0,1,6.714,1.466c2.748,1.034,5.747-.936,5.782-.959a.274.274,0,1,1,.3.458,8.706,8.706,0,0,1-4.348,1.352,5.579,5.579,0,0,1-1.929-.338,30.387,30.387,0,0,0-6.519-1.428v3.547c1.154-.09,4.459-.061,7.151.038a19.192,19.192,0,0,0,6.257-.959.271.271,0,0,1,.35.157A.275.275,0,0,1,400.58,387.965Z" transform="translate(0.641 105.591)" fill="#7caef7"/>
    <path id="Path_263" data-name="Path 263" d="M365.571,296c.364.122,10.532,2.818,10.532,2.818l-3.063,11.325-10.526-2.547Z" transform="translate(17.927 60.163)" fill="#faaeb0"/>
    <path id="Path_264" data-name="Path 264" d="M377.546,296.469l-1.591,10.652,11.017.734.982-10.035Z" transform="translate(43.655 61.066)" fill="#faaeb0"/>
    <path id="Path_265" data-name="Path 265" d="M365.591,304.268l11.139.381-.828,9.7H364.646Z" transform="translate(22.008 75.995)" fill="#faaeb0"/>
    <path id="Path_266" data-name="Path 266" d="M373.015,307.554l3.668,8.848,10.015-3.62-4.015-8.515Z" transform="translate(38.028 75.995)" fill="#faaeb0"/>
    <rect id="Rectangle_9" data-name="Rectangle 9" width="11.492" height="11.398" transform="translate(428.279 384.565) rotate(-89.887)" fill="#fcc2c2"/>
    <path id="Path_267" data-name="Path 267" d="M371.694,305.718l-1.246-6.065,9.687-3.185,3.3,10.53-4.775,1.679-.245-3.515Z" transform="translate(33.112 61.066)" fill="#fcc2c2"/>
    <path id="Path_268" data-name="Path 268" d="M376.368,301.276l-9.5-.122-.788,10.311,10.285.569Z" transform="translate(24.758 70.033)" fill="#fcc2c2"/>
    <path id="Path_269" data-name="Path 269" d="M370.2,303.494v10.04h11.014l-.734-10.439Z" transform="translate(32.639 73.751)" fill="#fcc2c2"/>
    <path id="Path_270" data-name="Path 270" d="M381.939,284.036l5.581,10.524-9.181,5.663-6-10.433Z" transform="translate(36.741 37.268)" fill="#ff435e"/>
    <path id="Path_271" data-name="Path 271" d="M390.376,286.347l-1.1,9.818,9.522,1.246,1.1-10.456Z" transform="translate(69.162 41.691)" fill="#fcc2c2"/>
    <path id="Path_272" data-name="Path 272" d="M384.576,288.79l2.433,9.249,8.35-3.628-2.377-8.632Z" transform="translate(60.158 40.605)" fill="#faaeb0"/>
    <path id="Path_273" data-name="Path 273" d="M398.942,297.184c.28.367,2.987,7.833,2.987,7.833l-6.988,2.888-3.066-8.154Z" transform="translate(74.129 62.435)" fill="#fcd0d0"/>
    <path id="Path_274" data-name="Path 274" d="M401.023,292.165v7.988h7.8v-8.6Z" transform="translate(91.641 51.662)" fill="#ff435e"/>
    <path id="Path_275" data-name="Path 275" d="M403.288,288.042l1.728,7.223,8.23-2.693-2.45-6.793Z" transform="translate(95.976 40.605)" fill="#faaeb0"/>
    <path id="Path_276" data-name="Path 276" d="M407.3,299.456l1.389,9.172,9.852-1.468-.552-9.425Z" transform="translate(103.664 63.489)" fill="#d5dcff"/>
    <path id="Path_277" data-name="Path 277" d="M415.44,297.417v9.3l7.94-.347,2.1-9.69Z" transform="translate(119.237 61.47)" fill="#6077f1"/>
    <path id="Path_278" data-name="Path 278" d="M398.322,316.171l9.457.492-.95,9.67-9.335-.49Z" transform="translate(84.885 98.78)" fill="#fcd0d0"/>
    <path id="Path_279" data-name="Path 279" d="M399.174,329.673l8.233-5.142,3.757,8.629-7.55,5.083Z" transform="translate(88.1 114.781)" fill="#ff435e"/>
    <path id="Path_280" data-name="Path 280" d="M394.376,279.627c.245-.49,1.483-7.833,1.483-7.833l-7.854-.612-1.591,7.562Z" transform="translate(63.677 12.663)" fill="#fcc2c2"/>
    <path id="Path_281" data-name="Path 281" d="M398.269,277.373l-4.482-6.679,7.895-2.746,4.735,6.485Z" transform="translate(77.789 6.471)" fill="#ff435e"/>
    <path id="Path_282" data-name="Path 282" d="M395.7,277.587l2.96,8.6,7.166-3.509-3.068-7.468Z" transform="translate(81.449 20.381)" fill="#fcd0d0"/>
    <path id="Path_283" data-name="Path 283" d="M389.137,276.614c.1-.041,8.122,2.162,8.122,2.162l-2.495,8.431-8.349-2.156Z" transform="translate(63.677 23.06)" fill="#ff435e"/>
    <path id="Path_284" data-name="Path 284" d="M392.442,279.24l6.619,3.87-3.876,6.449-6.642-3.591Z" transform="translate(67.751 28.088)" fill="#ffdede"/>
    <path id="Path_285" data-name="Path 285" d="M394.171,281.146l7.413-1.366,1.631,7.934-8.668,1.406Z" transform="translate(78.524 29.122)" fill="#ffc2c2"/>
    <path id="Path_286" data-name="Path 286" d="M406.914,275.872c.367-.032,10.063,1.131,10.063,1.131l1.568-10.345-9.882-.979Z" transform="translate(102.916 2.127)" fill="#faaeb0"/>
    <path id="Path_287" data-name="Path 287" d="M413.964,343.351l8.76-1.836-1.9-9.551-9.246,2.3Z" transform="translate(111.84 129.012)" fill="#faaeb0"/>
    <path id="Path_288" data-name="Path 288" d="M425.8,343.442l9.057-2.693-1.466-8.32-9.547,1.964S425.557,343.2,425.8,343.442Z" transform="translate(135.323 129.901)" fill="#ff435e"/>
    <path id="Path_289" data-name="Path 289" d="M423.634,337.19l-.609,8.048-9.369-.461.307-8.569Z" transform="translate(115.822 137.134)" fill="#fcc2c2"/>
    <path id="Path_290" data-name="Path 290" d="M421.941,339.527l-.828,8.572,8.7.732.6-7.957Z" transform="translate(130.096 143.488)" fill="#fcc2c2"/>
    <path id="Path_291" data-name="Path 291" d="M391.279,277.617c.312,1.606.1,3-.478,3.1s-1.285-1.1-1.594-2.7-.1-2.993.475-3.107S390.97,276.011,391.279,277.617Z" transform="translate(68.748 19.785)" fill="#0c1498"/>
    <path id="Path_292" data-name="Path 292" d="M395.949,276.575c.216,1.623-.079,3-.656,3.074s-1.221-1.174-1.437-2.795.082-2.993.659-3.075S395.736,274.957,395.949,276.575Z" transform="translate(77.789 17.63)" fill="#0c1498"/>
    <path id="Path_293" data-name="Path 293" d="M369.233,300.917l12.214-1.591,1.616,10.894-13.094,1.594Z" transform="translate(30.789 66.536)" fill="#ff435e"/>
    <path id="Path_294" data-name="Path 294" d="M414.829,314.108l-12.117-.169a13.57,13.57,0,0,1-4.179.749.955.955,0,0,1-.594-.251.53.53,0,0,1,0-.763c-1.043.545-2.468,1.093-3.057.507-.985-.979,1.343-2.573,5.257-4.934s6.982-4.368,12.006-4.98c0,0,1.174.836,2.075,4.205a18.649,18.649,0,0,1,.522,2.827A18.071,18.071,0,0,1,414.829,314.108Z" transform="translate(79.451 75.994)" fill="#f3b6ab"/>
    <path id="Path_295" data-name="Path 295" d="M412.282,309.489l-12.117-.169a13.569,13.569,0,0,1-4.179.749c1.553-.49,4-1.233,7.146-2.049a40.553,40.553,0,0,1,9.063-1.341A18.068,18.068,0,0,1,412.282,309.489Z" transform="translate(81.998 80.613)" fill="#f4948e"/>
    <path id="Path_296" data-name="Path 296" d="M432.613,325.273H385.1s2.323,5.257,2.081,21.174c-.2,12.653-7.728,40.638-9.564,42.107a7.379,7.379,0,0,1-1.83,1c1.4-4.82,5.184-18.54,6.376-29.154,1.469-13.094-2.567-42.722-2.567-42.722s7.093.857,25.088,1.227,28.987-2.066,28.955-1.772C433.613,317.289,433.1,321.409,432.613,325.273Z" transform="translate(43.328 100.577)" fill="#017"/>
    <g id="Group_26" data-name="Group 26" transform="translate(423.988 413.238)">
      <path id="Path_297" data-name="Path 297" d="M382.4,330.06a.276.276,0,0,1-.268-.213,139.589,139.589,0,0,0-4.648-13.886.267.267,0,0,1,.154-.359.275.275,0,0,1,.356.154,139.762,139.762,0,0,1,4.674,13.959.282.282,0,0,1-.2.335A.533.533,0,0,1,382.4,330.06Z" transform="translate(-377.457 -315.583)" fill="#6077f1"/>
    </g>
    <g id="Group_27" data-name="Group 27" transform="translate(475.783 403.781)">
      <path id="Path_298" data-name="Path 298" d="M395.505,334.678h-.026a.278.278,0,0,1-.248-.3c.05-.554,1.2-13.624,2.521-15.41s13.735-6.42,14.259-6.612a.282.282,0,0,1,.358.16.275.275,0,0,1-.163.353c-3.555,1.326-13,5.053-14.014,6.429s-2.084,11.389-2.41,15.13A.276.276,0,0,1,395.505,334.678Z" transform="translate(-395.231 -312.338)" fill="#6077f1"/>
    </g>
    <path id="Path_299" data-name="Path 299" d="M375.132,354.364c1.3-3.488,1.416-9.086,1.259-11.84l2.471-.9c1.227,3.8,1.979,12.738,1.979,12.738Z" transform="translate(42.08 147.506)" fill="#0c35ba"/>
    <path id="Path_300" data-name="Path 300" d="M397.51,353.918h-5.082c1.116-3.9,1.253-9.477,1.244-12.059l2.168.055C396.21,344.246,397.51,353.918,397.51,353.918Z" transform="translate(75.187 147.952)" fill="#0c35ba"/>
    <path id="Path_301" data-name="Path 301" d="M463.454,303.548l-1.836,9.13-13.344-3.139-.93.093-.565.061-41.612,4.22c.172-.009-1.824-5.721-1.824-5.721l44.937-8.256.361-.064.2.052Z" transform="translate(96.081 67.583)" fill="#233fe3"/>
    <g id="Group_28" data-name="Group 28" transform="translate(542.859 367.456)">
      <path id="Path_302" data-name="Path 302" d="M420.308,299.924l-1.494,9.708-.567.062,1.5-9.755.361-.066Z" transform="translate(-418.248 -299.873)" fill="#d5dcff"/>
    </g>
    <g id="Group_29" data-name="Group 29" transform="translate(502.026 370.912)">
      <path id="Path_303" data-name="Path 303" d="M405.428,309.964a.275.275,0,0,1-.256-.178l-.918-2.4a.286.286,0,0,1,.02-.239.283.283,0,0,1,.192-.134l38.2-5.951a.285.285,0,0,1,.259.1.281.281,0,0,1,.038.274l-1.011,2.48a.263.263,0,0,1-.216.166l-36.261,5.878Zm-.536-2.46.714,1.877,35.894-5.817.766-1.888Z" transform="translate(-404.236 -301.059)" fill="#d5dcff"/>
    </g>
  </g>
</svg>
