<svg xmlns="http://www.w3.org/2000/svg" width="233.137" height="238.91" viewBox="0 0 233.137 238.91">
  <g id="Group_103" data-name="Group 103" transform="translate(-325.931 -365.194)">
    <rect id="Rectangle_14" data-name="Rectangle 14" width="40.613" height="47.088" transform="translate(328.955 555.26)" fill="#fcc2c2"/>
    <rect id="Rectangle_15" data-name="Rectangle 15" width="40.613" height="17.201" transform="translate(328.955 555.26)" fill="#ff435e"/>
    <rect id="Rectangle_16" data-name="Rectangle 16" width="40.609" height="102.021" transform="translate(376.04 500.327)" fill="#fcc2c2"/>
    <rect id="Rectangle_17" data-name="Rectangle 17" width="40.609" height="22.451" transform="translate(376.04 500.327)" fill="#ff435e"/>
    <rect id="Rectangle_18" data-name="Rectangle 18" width="40.609" height="132.261" transform="translate(422.121 470.088)" fill="#fcc2c2"/>
    <rect id="Rectangle_19" data-name="Rectangle 19" width="40.609" height="23.217" transform="translate(422.121 470.088)" fill="#ff435e"/>
    <rect id="Rectangle_20" data-name="Rectangle 20" width="40.607" height="120.713" transform="translate(468.203 481.635)" fill="#fcc2c2"/>
    <rect id="Rectangle_21" data-name="Rectangle 21" width="40.607" height="23.531" transform="translate(468.203 481.635)" fill="#ff435e"/>
    <rect id="Rectangle_22" data-name="Rectangle 22" width="40.601" height="159.956" transform="translate(514.285 442.392)" fill="#fcc2c2"/>
    <rect id="Rectangle_23" data-name="Rectangle 23" width="40.601" height="28.815" transform="translate(514.285 442.392)" fill="#ff435e"/>
    <g id="Group_31" data-name="Group 31" transform="translate(328.955 572.213)">
      <rect id="Rectangle_24" data-name="Rectangle 24" width="40.613" height="0.498" fill="#f95353"/>
    </g>
    <g id="Group_32" data-name="Group 32" transform="translate(376.04 522.528)">
      <rect id="Rectangle_25" data-name="Rectangle 25" width="40.609" height="0.501" fill="#f95353"/>
    </g>
    <g id="Group_33" data-name="Group 33" transform="translate(422.121 492.76)">
      <rect id="Rectangle_26" data-name="Rectangle 26" width="40.609" height="0.498" fill="#f95353"/>
    </g>
    <g id="Group_34" data-name="Group 34" transform="translate(468.203 504.863)">
      <path id="Path_304" data-name="Path 304" d="M448.821,446.024v.5l-40.607-.051v-.5Z" transform="translate(-408.214 -445.972)" fill="#f95353"/>
    </g>
    <g id="Group_35" data-name="Group 35" transform="translate(514.284 470.262)">
      <path id="Path_305" data-name="Path 305" d="M475.467,426.4v.5c-25.919-.216-36.372-.361-40.6-.456v-.489C442,426.1,461.788,426.288,475.467,426.4Z" transform="translate(-434.865 -425.96)" fill="#f95353"/>
    </g>
    <path id="Path_306" data-name="Path 306" d="M458.747,376.932a1.573,1.573,0,0,0-.054.474c-.01.005-.021,0-.033,0-1.252.251-1.752,3.507-1.752,3.507s-1.5-3.692-2.946-4.568c-1.012-.616-1.65-.735-2.4-.311a5.021,5.021,0,0,0-1.043.814,7.4,7.4,0,0,1-8.391.558.443.443,0,0,0-.045.213,3.12,3.12,0,0,1-1.247-3.7c.666-1.881,2.291-2,3.462-2.047a6.563,6.563,0,0,1,4.63-3.548c1.836-.3,2.882-.239,3.6.182a3.793,3.793,0,0,1,1.369,1.7c.918,1.795,1.215,1.755,2.671,2.215s1.423,1.916,1.67,2.628S459.038,375.928,458.747,376.932Z" transform="translate(83.631 2.149)" fill="#375afe"/>
    <path id="Path_307" data-name="Path 307" d="M453.041,380.758s-1.5-3.692-2.946-4.568c-1.012-.616-1.65-.735-2.4-.311-2.592-1.01-2.174-3.067.4-3.61,2.17-.46,1.567-1.636.571-3.913a3.793,3.793,0,0,1,1.369,1.7c.918,1.795,1.216,1.755,2.671,2.215s1.423,1.916,1.67,2.628.794.877.5,1.881a1.572,1.572,0,0,0-.054.474c-.01.005-.021,0-.033,0C453.541,377.5,453.041,380.758,453.041,380.758Z" transform="translate(87.499 2.304)" fill="#1949f7"/>
    <path id="Path_308" data-name="Path 308" d="M452.427,379.782a2.1,2.1,0,0,1-2.258.456,9.593,9.593,0,0,0,.294-1.774s2.381-1.435,2.63-2.623c.014-.066.026-.137.035-.214A3.6,3.6,0,0,1,452.427,379.782Z" transform="translate(90.577 7.606)" fill="#1949f7"/>
    <path id="Path_309" data-name="Path 309" d="M462.008,381.967c.3,1.29.166,3.105-2.151,4.489-2.383,1.423-3.8,1.172-4.428.546s-.038-1.286,1.088-2.128,2.206-2.339.915-2.628c-2.172-.495-3.792-1.017-4.183-2.339a4.55,4.55,0,0,1,.555-3.761c.458-1.039,1.162-3.13.121-3.591a1.565,1.565,0,0,0-1.636.323,1.376,1.376,0,0,0-.825-.825c-.036-.01-.073-.017-.105-.029a1.069,1.069,0,0,0-1.126.285c-.51-.92.01-3.816,2.524-4.845a6.934,6.934,0,0,1,7.971,1.608,6.526,6.526,0,0,1,1.129,6.7c-.628,1.043-2.753,2.59-2.213,3.755s2.009,1.044,2.338,2.341A.781.781,0,0,1,462.008,381.967Z" transform="translate(90.495 1.221)" fill="#375afe"/>
    <path id="Path_310" data-name="Path 310" d="M459.308,384.99c-2.383,1.423-3.8,1.172-4.428.546s-.038-1.286,1.088-2.128,2.206-2.339.915-2.628c-2.172-.495-3.792-1.017-4.183-2.339a4.551,4.551,0,0,1,.555-3.761c.458-1.039,1.162-3.13.121-3.591a1.565,1.565,0,0,0-1.636.323,1.376,1.376,0,0,0-.825-.825c-.036-.01-.073-.017-.105-.029.591-1.089,1.739-2.231,3.5-1.385,2.635,1.248,2.288,3.794,1.331,5.217s-2.032,3.863,1.606,4.115a6.039,6.039,0,0,1,4.207,2C461.764,381.791,461.625,383.607,459.308,384.99Z" transform="translate(91.044 2.686)" fill="#1949f7"/>
    <path id="Path_311" data-name="Path 311" d="M474.427,408.531c0,.351-.016.7-.042,1.03a7.673,7.673,0,0,1-1.885,5.1,4.78,4.78,0,0,1-1.271.913c-.982.482-24.3.1-24.3.1s1.314,2,1.753,9.518-.558,20.356-.558,20.356l-.377.425-1.568,1.764s-1.909-6.145-3.832-12.591c-1.4-4.682-2.81-9.529-3.493-12.276-.884-3.534-2.179-7.622-3.142-10.808a25.032,25.032,0,0,1-1.307-5.22c.188-1.122,1.694-1.753,3.508-1.753,1.357,0,19.668-1.935,28.761-2.9l5.054-.541A11.88,11.88,0,0,1,474.427,408.531Z" transform="translate(79.079 26.574)" fill="#0c1498"/>
    <path id="Path_312" data-name="Path 312" d="M460.817,408.531c0,.351-.016.7-.042,1.03a7.673,7.673,0,0,1-1.885,5.1c-.107-1.113-.287-2.495-.584-4.074-.06-.287-.123-.579-.187-.885-.68-3.175-3.292-5.976-5.054-7.516l5.054-.541A11.88,11.88,0,0,1,460.817,408.531Z" transform="translate(92.689 26.574)" fill="#061284"/>
    <path id="Path_313" data-name="Path 313" d="M470.168,406.223a7.673,7.673,0,0,1-1.885,5.1,4.781,4.781,0,0,1-1.271.913c-.982.482-24.3.1-24.3.1s1.314,2,1.753,9.518-.559,20.356-.559,20.356l-.377.425c-.054-4.874-.221-15.727-.711-21.281a71.191,71.191,0,0,0-2.635-13.573c8.36,3.576,21.625,1.4,27.514-.531A12.568,12.568,0,0,0,470.168,406.223Z" transform="translate(83.297 29.912)" fill="#061284"/>
    <path id="Path_314" data-name="Path 314" d="M443.612,430.753v.009c.182,6.086-6.522,18.382-8.357,20.223-.507.51-.934.889-1.281,1.179a4.552,4.552,0,0,1-1.309.875l4.312-45.37c.963,3.187,2.258,7.274,3.142,10.808.292,1.184.723,2.761,1.229,4.546C442.012,425.372,442.818,428.086,443.612,430.753Z" transform="translate(77.815 30.966)" fill="#0c1498"/>
    <path id="Path_315" data-name="Path 315" d="M443.06,424.279v.009c.182,6.086-6.522,18.382-8.357,20.223-.507.51-.934.889-1.281,1.179a62.263,62.263,0,0,0,5.367-14.488,98.57,98.57,0,0,0,2.007-14.654C441.46,418.9,442.266,421.612,443.06,424.279Z" transform="translate(78.367 37.44)" fill="#061284"/>
    <path id="Path_316" data-name="Path 316" d="M475.728,402.231c-.581-4.8-3.721-13.653-4.888-15.153-.911-1.167-2.953-2.792-6.74-3.749a25.737,25.737,0,0,0-3.7-.635,23.427,23.427,0,0,0-12.026,1.987c-.391.169-.752.325-1.079.472-2.554,1.124-3.434,3.09-4.183,5.223-.673,1.919-2.991,8.4-3.429,9.634l.109.04,5.045-.418,2.613-.218a11.868,11.868,0,0,0,.093-1.4c.579,1.672,3.016,4.262,3.016,4.262s0,.028.005.09c.038.527.247,3.372.775,7.84.389,3.251.446,7.639.446,7.639l16.334-2.329h.005l.188-.031a13.169,13.169,0,0,0,7.413-3.691,7.6,7.6,0,0,0,.4-3.131A55.356,55.356,0,0,0,475.728,402.231ZM467,404.109a26.03,26.03,0,0,0,0-3.9l.5-.735s.46,2.547.816,4.634.476,2.962.476,2.962a7.457,7.457,0,0,1-1.5,1.088A15.531,15.531,0,0,1,467,404.109Z" transform="translate(82.934 12.67)" fill="#6077f1"/>
    <path id="Path_317" data-name="Path 317" d="M460.436,383.329c-8.714,3.811-13.912,2.32-15.724,1.352a23.428,23.428,0,0,1,12.026-1.987A25.737,25.737,0,0,1,460.436,383.329Z" transform="translate(86.598 12.67)" fill="#4a67e5"/>
    <path id="Path_318" data-name="Path 318" d="M450.064,397.7c-.455-.038-1.055-.079-1.67-.128-.005-.062-.005-.09-.005-.09s-2.436-2.59-3.016-4.262a11.876,11.876,0,0,1-.093,1.4l-2.613.218,2.514-5.692S445.437,396.947,450.064,397.7Z" transform="translate(85.107 17.463)" fill="#4a67e5"/>
    <g id="Group_38" data-name="Group 38" transform="translate(534.276 422.138)">
      <path id="Path_319" data-name="Path 319" d="M463.4,404.142a26.914,26.914,0,0,1-8.958,1.693,7.241,7.241,0,0,0-2.63.377,16.629,16.629,0,0,1-3.133.541c-.242.016-.456.021-.64.021h-.005c-.18,0-.318-.01-.436-.021a3.093,3.093,0,0,1-.358-.041h-.814v-1.065a11.688,11.688,0,0,1,3.258-3.194,8.757,8.757,0,0,1,3.757-.564c.56-.059,6.513-3.569,6.89-3.761a8.779,8.779,0,0,1,1.817,2.322,8.27,8.27,0,0,1,.641,1.362A10.932,10.932,0,0,1,463.4,404.142Z" transform="translate(-446.427 -398.128)" fill="#f3b6ab"/>
      <path id="Path_320" data-name="Path 320" d="M462.451,402.588a26.915,26.915,0,0,1-8.958,1.693,7.241,7.241,0,0,0-2.63.377,16.631,16.631,0,0,1-3.133.541,23.312,23.312,0,0,1,6.235-1.961c2.505-.28,6.085-2.018,7.876-2.979A10.935,10.935,0,0,1,462.451,402.588Z" transform="translate(-445.477 -396.574)" fill="#f4948e"/>
      <g id="Group_36" data-name="Group 36" transform="translate(0 5.232)">
        <path id="Path_321" data-name="Path 321" d="M450.527,401.353a23.177,23.177,0,0,1-4.01,3.152h-.09v-.235a24.946,24.946,0,0,0,3.9-3.062.114.114,0,0,1,.159-.036A.134.134,0,0,1,450.527,401.353Z" transform="translate(-446.427 -401.154)" fill="#0c1498"/>
      </g>
      <g id="Group_37" data-name="Group 37" transform="translate(1.172 6.882)">
        <path id="Path_322" data-name="Path 322" d="M450,402.327a13.035,13.035,0,0,1-2.454,1.544h-.005c-.18,0-.318-.01-.436-.021a.118.118,0,0,1,.078-.1,12.821,12.821,0,0,0,2.661-1.618.131.131,0,0,1,.178.014A.123.123,0,0,1,450,402.327Z" transform="translate(-447.105 -402.108)" fill="#0c1498"/>
      </g>
    </g>
    <path id="Path_323" data-name="Path 323" d="M447.76,394.151a4.944,4.944,0,0,1-.8-.054C447.438,394.132,447.76,394.151,447.76,394.151Z" transform="translate(88.237 21.072)" fill="#0a2556"/>
    <path id="Path_324" data-name="Path 324" d="M459.657,397.879c-.455-3.235-.916-10.54-.916-10.54s-.27,5.011-2.149,7.433-4.615,2.893-4.361,3.107c1.126.956,4.006.6,4.006.6v.595a28.846,28.846,0,0,1,.27,6.672l1.38-.889,2.355-1.307S460.119,401.116,459.657,397.879Zm-1.5,6.8a15.53,15.53,0,0,1-.29-4.049,26.03,26.03,0,0,0,0-3.9l.5-.735s.46,2.547.816,4.634.476,2.962.476,2.962A7.457,7.457,0,0,1,458.155,404.683Z" transform="translate(92.068 16.145)" fill="#4a67e5"/>
    <path id="Path_325" data-name="Path 325" d="M464.458,397.66a7.6,7.6,0,0,1-.4,3.131,13.169,13.169,0,0,1-7.413,3.691l-.188.031h-.005l-.747-2.186C457.721,401.875,462.381,399.9,464.458,397.66Z" transform="translate(94.609 23.669)" fill="#4a67e5"/>
    <path id="Path_326" data-name="Path 326" d="M412.935,392.353c-.612,1.152-3.712,3.8-11.311,2.675-5.54-.821-7.929-2.256-7.6-1.254a.864.864,0,0,1,.031.116,47.345,47.345,0,0,1,1.055,11.237c-.086,5.6-2.339,13.7-2.339,13.7s.133.259-.228.6c-.588.557-2.438,1.523-8.173,1.835a25.553,25.553,0,0,1-11.318-1.729,11.506,11.506,0,0,1-2-1.025c-.1-.066-.152-.1-.152-.1.062-.105.123-.216.185-.325a2.313,2.313,0,0,0,.126-.244l.009-.007c1.506-2.824,2.039-5.756,1.044-10.449-1.053-5.011-1.7-8.182-1.7-8.182s-2.424,3.091-3.5,4.675a4.123,4.123,0,0,0-.925,2.87v.005a1.608,1.608,0,0,0,.071.306,2.764,2.764,0,0,0,.6,1.077,66.311,66.311,0,0,1,3.947,6.595c.045.079.083.157.128.227.342.629.559,1.029.559,1.029l-1.892,3.268-.005.01-.424.733s-.256-.218-.683-.595c-.062-.052-.128-.116-.2-.18-2.175-1.9-7.689-6.819-9.027-8.744-.019-.028-.035-.06-.055-.085l-.005-.009c-1.6-2.4-1.257-5.049.061-8.676,1.338-3.671,5.931-14.114,8.855-16.281a21.075,21.075,0,0,1,5.664-2.561c.934-.3,1.821-.545,2.569-.738.093-.021.173-.045.261-.067a18.5,18.5,0,0,1,1.833-.391,6.4,6.4,0,0,0,2.179,1.065.6.6,0,0,0,.147.029.9.9,0,0,0,.14.019.42.42,0,0,0,.105.01.826.826,0,0,0,.185,0,1.752,1.752,0,0,0,.2-.019h.005a1.281,1.281,0,0,0,.169-.04,1.774,1.774,0,0,0,1.074-.941l.048-.239c.922.047,1.795.135,2.616.254a2.057,2.057,0,0,1,.266.036h0c.906.135,1.753.313,2.562.514,2.846.7,5.154,1.707,7.364,2.4,4.259,1.333,7.767,2.5,7.928,1.752.13-.559-2.381-4.947-3.654-7.125-.05-.076-.1-.15-.137-.221-.356-.609-.59-1-.59-1a4.454,4.454,0,0,0,1.266-.794,8.337,8.337,0,0,0,2.172-3.463s.349.259.916.731c.069.057.142.123.227.19a40.531,40.531,0,0,1,5.227,5.258,22.205,22.205,0,0,1,4.378,9.8A4.344,4.344,0,0,1,412.935,392.353Z" transform="translate(23.436 6.347)" fill="#d5dcff"/>
    <path id="Path_327" data-name="Path 327" d="M381.487,379.131a14.645,14.645,0,0,1-14.36.507,37.214,37.214,0,0,1,4.663-1.2,5.816,5.816,0,0,0,2.571,1.124,1.7,1.7,0,0,0,1.629-1l.048-.239A27.885,27.885,0,0,1,381.487,379.131Z" transform="translate(30.035 9.574)" fill="#aebdf4"/>
    <path id="Path_328" data-name="Path 328" d="M369.148,403.638l-.052.227-.005.01-.424.733s-8.242-7.1-9.914-9.519c-.019-.028-.035-.06-.055-.085C363.162,399.058,369.148,403.638,369.148,403.638Z" transform="translate(23.889 21.734)" fill="#aebdf4"/>
    <path id="Path_329" data-name="Path 329" d="M369.842,412.354a4.443,4.443,0,0,1-1.027,1.983l-1.328-1.523.351-1.485.159-.673.009-.007c1.506-2.824,2.039-5.756,1.044-10.449-1.053-5.011-1.7-8.182-1.7-8.182s-2.424,3.091-3.5,4.675a4.123,4.123,0,0,0-.925,2.87,5.629,5.629,0,0,1,.071-4.454c1.1-2,5.9-8.778,5.63-11.36a44.408,44.408,0,0,1,1.589,11.026C370.333,400.01,371.021,408.258,369.842,412.354Z" transform="translate(26.647 13.528)" fill="#aebdf4"/>
    <path id="Path_330" data-name="Path 330" d="M398.728,385.613c-.612,1.152-3.712,3.8-11.311,2.675-5.54-.821-7.929-2.256-7.6-1.254a.864.864,0,0,1,.031.116,40.121,40.121,0,0,1-2.286-3.37s8.351,2.419,14.448,2.251c5.056-.138,6.086-1.371,6.963-2.887A4.344,4.344,0,0,1,398.728,385.613Z" transform="translate(37.644 13.086)" fill="#aebdf4"/>
    <path id="Path_331" data-name="Path 331" d="M386.123,385.048c.168-.75-4.38-8.351-4.38-8.351a4.453,4.453,0,0,0,1.266-.794c.621,1.26,1.731,3.467,2.779,5.436C387.375,384.3,386.712,384.965,386.123,385.048Z" transform="translate(40.69 7.807)" fill="#aebdf4"/>
    <path id="Path_332" data-name="Path 332" d="M413.134,422.687c-2.668,7.846-4.423,19.7-4.423,19.7h-1.753s-1.212-5.86-2.267-11.83q-.083-.506-.175-1.01c-.8-4.663-1.458-9.207-1.318-10.876a8.2,8.2,0,0,1,3.759-5.925,44.286,44.286,0,0,0-9.942,0c-2.217.208-4.883.55-7.383.918-.6.088-1.186.176-1.76.27-3.7.576-6.669,1.165-6.717,1.4-.083.418-6.683,21.959-9.021,30.891s-4.508,24.632-4.508,24.632l-1.347-.622-.429-.2s-3.816-13.7-3.23-21.3,3.23-10.272,3.23-10.272-.707-15.195-.372-24.712c.092-2.585.263-4.75.477-6.544.01-.085.021-.173.031-.256a40.667,40.667,0,0,1,.9-5.077c.026-.09.048-.171.073-.252a11.277,11.277,0,0,1,.662-1.982,14.868,14.868,0,0,0,5.72,2.182c.081.016.166.035.249.052a31.108,31.108,0,0,0,7.49.437,34.042,34.042,0,0,0,6.029-.728,4.858,4.858,0,0,0,2.16-.92c.166,0,.332-.01.5-.012h0q.226-.016.451-.021h.005c23.6-.768,26.669,2.54,27.492,4.269C418.56,406.653,415.8,414.837,413.134,422.687Z" transform="translate(26.705 25.113)" fill="#233fe3"/>
    <path id="Path_333" data-name="Path 333" d="M404.468,422.853a152.855,152.855,0,0,0,1.141,15.28h-.22s-1.212-5.86-2.267-11.83q-.083-.506-.175-1.01c-.8-4.663-1.458-9.207-1.318-10.876a8.2,8.2,0,0,1,3.759-5.925,44.288,44.288,0,0,0-9.942,0c-2.217.208-4.883.55-7.383.918-.6.088-1.186.176-1.76.27-3.7.576-6.669,1.165-6.717,1.4-.083.418-6.683,21.959-9.021,30.891s-4.508,24.632-4.508,24.632l-1.347-.622a189.309,189.309,0,0,1,3.432-19.749c2.428-10.1,10.693-36.822,10.693-36.822s9.85-4.008,19.118-3.927,9.854,2.756,9.519,3.342C407.473,408.825,404.555,417.09,404.468,422.853Z" transform="translate(28.274 29.371)" fill="#0c35ba"/>
    <path id="Path_334" data-name="Path 334" d="M355.2,496.058c-.83,6.176-3.923,26.966-3.923,26.966l-1.252-.434-1.416-.481s-5.35-12.778-6.263-21.964,2.92-13.1,2.92-13.1-14.2-6.264-15.447-9.774a12.745,12.745,0,0,1,.489-8.991l.588.066-.246.41s.315.042.851.1a97.4,97.4,0,0,0,10.511.745l.3-.014s9.468,9.688,11.975,12.442S356.032,489.875,355.2,496.058Z" transform="translate(2.398 75.152)" fill="#6077f1"/>
    <path id="Path_335" data-name="Path 335" d="M350.02,522.591l-1.416-.481s-5.35-12.778-6.263-21.964,2.92-13.1,2.92-13.1-14.2-6.264-15.447-9.774a12.745,12.745,0,0,1,.489-8.991l.588.066-.246.41s.315.042.851.1a13.95,13.95,0,0,0,.652,5.91c.92,2.339,15.47,11.605,15.47,11.605a30.725,30.725,0,0,0-2.753,12.107C344.645,504.512,348.6,517.973,350.02,522.591Z" transform="translate(2.398 75.152)" fill="#4a67e5"/>
    <path id="Path_336" data-name="Path 336" d="M369.914,479.093c-1.532.961-3.185,1.881-4.819,2.727l-.007.007c-5.308,2.749-10.386,4.7-10.386,4.7a10.629,10.629,0,0,0-1.919-3.655,77.867,77.867,0,0,1-10.146,1.307c-6.036.424-11.962.424-11.962.424l.163-1.781.251-2.649s5.536-3.088,11.246-5.908c2.556-1.271,5.147-2.485,7.291-3.339,6.072-2.429,18.541-6.894,23.455-2.8a5.3,5.3,0,0,1,1.594,2.282C375.145,471.67,376.431,475,369.914,479.093Z" transform="translate(3.459 73.831)" fill="#6077f1"/>
    <path id="Path_337" data-name="Path 337" d="M371,470.465a26.643,26.643,0,0,1-5.9,8.438l-.007.007c-5.308,2.749-10.386,4.7-10.386,4.7a10.629,10.629,0,0,0-1.919-3.655,77.867,77.867,0,0,1-10.146,1.307c-6.036.424-11.962.424-11.962.424l.163-1.781a143.238,143.238,0,0,0,17.434-1.565C359.983,476.7,370.7,470.629,371,470.465Z" transform="translate(3.459 76.748)" fill="#4a67e5"/>
    <path id="Path_338" data-name="Path 338" d="M362.212,455.145h-8.163l-3.947,22.8s-.171.55-.493,1.324l-.431.005-4.75,5.016-.022.005a108.829,108.829,0,0,1-11.362-.847l.216-.356.029-.054.007-.007c-.3-.028-.579-.052-.846-.081-4.371-.5-5.383-1.816-6.169-4.094-.674-1.961-.258-9.252.24-13.628v-.007c.112-1.024.233-1.881.348-2.483.583-3.169,1.665-6.34,6.427-9.52a37.817,37.817,0,0,1,7.639-3.852c.635-.244,1.217-.443,1.743-.617.08-.028.159-.057.24-.081.752-.246,1.364-.424,1.783-.545.071.4.121.726.14.866a2.971,2.971,0,0,0,1.7,1.66c.092.035.185.062.28.088a1.726,1.726,0,0,0,.4.066.282.282,0,0,0,.054,0,2.7,2.7,0,0,0,.335-.007,2.27,2.27,0,0,0,1.805-1.055,6.527,6.527,0,0,0,.294-.944c.37.078.75.156,1.146.251.083.021.161.036.246.054.8.2,1.637.429,2.488.7.474.154.953.318,1.433.5A17.552,17.552,0,0,1,362.212,455.145Z" transform="translate(0 60.458)" fill="#0c1498"/>
    <path id="Path_339" data-name="Path 339" d="M347.26,449.8c-4.935,2.229-10.361.5-12.651-.436,1.677-.633,3.022-1.024,3.766-1.243.071.4.121.726.14.866a3.013,3.013,0,0,0,2.377,1.814,2.351,2.351,0,0,0,2.194-1.062,6.527,6.527,0,0,0,.294-.944A36.663,36.663,0,0,1,347.26,449.8Z" transform="translate(6.327 60.458)" fill="#061284"/>
    <path id="Path_340" data-name="Path 340" d="M348.2,471.185v1.871s-2.538,2.324-9.308,2.68c-3.2.169-4.821.176-5.632.142-.9-.043-.809-.142-.809-.142-4.371-.5-5.383-1.816-6.169-4.094-.674-1.961-.258-9.252.24-13.628.239,4.148.828,11.057,1.473,12.717.935,2.414,3.5,3.226,5.886,3.541S345.421,472.539,348.2,471.185Z" transform="translate(0 67.67)" fill="#061284"/>
    <path id="Path_341" data-name="Path 341" d="M333.5,469.747a25.215,25.215,0,0,0-.681-6.837,44.4,44.4,0,0,0-2.26-6.323s1.471,6.956.194,12.755C330.757,469.342,333.126,469.709,333.5,469.747Z" transform="translate(3.377 66.63)" fill="#061284"/>
    <g id="Group_39" data-name="Group 39" transform="translate(344.073 505.166)">
      <path id="Path_342" data-name="Path 342" d="M342.367,448.877c-.043.218-.111.507-.176.8v.009c-.045.18-.086.365-.133.545a6.533,6.533,0,0,1-.294.944,2.351,2.351,0,0,1-2.194,1.062,3.012,3.012,0,0,1-2.377-1.814c-.019-.14-.069-.462-.14-.866-.045-.256-.1-.546-.149-.849-.223-1.2-.481-2.562-.481-2.562l.012.009a4.2,4.2,0,0,0,.51.512A9.241,9.241,0,0,0,342.367,448.877Z" transform="translate(-336.423 -446.147)" fill="#f3b6ab"/>
      <path id="Path_343" data-name="Path 343" d="M342.367,448.877c-.043.218-.111.507-.176.8v.009a10.981,10.981,0,0,1-5.287-.979c-.223-1.2-.481-2.562-.481-2.562l.012.009a4.2,4.2,0,0,0,.51.512A9.241,9.241,0,0,0,342.367,448.877Z" transform="translate(-336.423 -446.147)" fill="#f4948e"/>
    </g>
    <g id="Group_40" data-name="Group 40" transform="translate(341.276 490.56)">
      <path id="Path_344" data-name="Path 344" d="M350.146,448.3c-.252,2.3-.38,4.779-3.258,6.093a7.284,7.284,0,0,1-3.342.647,8.447,8.447,0,0,1-2.583-.545,9.925,9.925,0,0,1-2.839-1.665,4.2,4.2,0,0,1-.51-.512,5.047,5.047,0,0,1-1.1-2.62,8.686,8.686,0,0,1,.17-3.135c-2.256-1-2.383-5.007-.878-5.007s1.938,2.756,1.938,2.756a10.108,10.108,0,0,1,1.805-3.865,7.874,7.874,0,0,1,.953-1.027c2.192-1.936,3.638-1.936,5.258-1.439s2.448-.5,3.387,1.506a19.265,19.265,0,0,1,1.079,6.678A18.5,18.5,0,0,1,350.146,448.3Z" transform="translate(-334.806 -437.7)" fill="#f3b6ab"/>
      <path id="Path_345" data-name="Path 345" d="M340.963,453.334a9.925,9.925,0,0,1-2.839-1.665,4.2,4.2,0,0,1-.51-.512,5.047,5.047,0,0,1-1.1-2.62,8.686,8.686,0,0,1,.17-3.135c-2.256-1-2.383-5.007-.878-5.007s1.938,2.756,1.938,2.756a10.108,10.108,0,0,1,1.805-3.865c-1.264,2.365-2.609,5.8-1.7,8.645C338.646,450.42,339.492,452.291,340.963,453.334Z" transform="translate(-334.806 -436.543)" fill="#f4948e"/>
      <path id="Path_346" data-name="Path 346" d="M339.971,448a5.11,5.11,0,0,1-.863-.213Z" transform="translate(-331.669 -430.346)" fill="#f4948e"/>
    </g>
    <g id="Group_41" data-name="Group 41" transform="translate(413.685 373.689)">
      <path id="Path_347" data-name="Path 347" d="M388.869,376.665a6.936,6.936,0,0,1-1.183,2.566,4.527,4.527,0,0,1-.885.954,3.474,3.474,0,0,1-1.369.737s-1.321-1.943-2.324-3.446a21.358,21.358,0,0,0-1.938-2.5,9.055,9.055,0,0,1-3.488-.705.24.24,0,0,1-.083-.105.52.52,0,0,1,.14-.382,3.684,3.684,0,0,1,.261-.3c.128-.135.268-.263.406-.387l.007-.007c.382-.332.752-.614.752-.614a12.342,12.342,0,0,1-1.841.871h-.005c-.271.09-.493.125-.591.05-.38-.273,1.753-2.735,3.005-3.112s2.313-.247,4.629,1.627A32.4,32.4,0,0,1,388.869,376.665Z" transform="translate(-376.683 -370.107)" fill="#f3b6ab"/>
      <path id="Path_348" data-name="Path 348" d="M386.38,378.537a3.474,3.474,0,0,1-1.369.737s-1.321-1.943-2.324-3.446a21.361,21.361,0,0,0-1.938-2.5,9.055,9.055,0,0,1-3.488-.705c1.305.169,3.358-.327,3.949-.239S384.708,375.322,386.38,378.537Z" transform="translate(-376.262 -368.459)" fill="#f4948e"/>
    </g>
    <g id="Group_42" data-name="Group 42" transform="translate(401.408 385.595)">
      <path id="Path_349" data-name="Path 349" d="M374.6,377.766l-.2.873-.15.661-.048.239a1.7,1.7,0,0,1-1.629,1A5.816,5.816,0,0,1,370,379.414a4.566,4.566,0,0,0-.143-1.088c-.1-.46-.218-.967-.273-1.333.249.105.514.2.8.29A10.21,10.21,0,0,0,374.6,377.766Z" transform="translate(-369.583 -376.993)" fill="#f3b6ab"/>
      <path id="Path_350" data-name="Path 350" d="M374.6,377.766l-.2.873a18.923,18.923,0,0,1-4.542-.313c-.1-.46-.218-.967-.273-1.333.249.105.514.2.8.29A10.21,10.21,0,0,0,374.6,377.766Z" transform="translate(-369.583 -376.993)" fill="#f4948e"/>
    </g>
    <g id="Group_43" data-name="Group 43" transform="translate(394.781 368.377)">
      <path id="Path_351" data-name="Path 351" d="M381.754,382.856a7.007,7.007,0,0,1-4.364,2.17,9.363,9.363,0,0,1-3.263-.223c-.306-.073-.626-.159-.954-.259-.282-.09-.546-.185-.8-.29a5.657,5.657,0,0,1-3.65-4.905c-2.881-.194-3.567-5.327-2.505-5.39a1.059,1.059,0,0,1,.591.159,4.356,4.356,0,0,1,1.352,1.656,23.08,23.08,0,0,1,.372-5.256,2.467,2.467,0,0,1,1.447-1.772,5.763,5.763,0,0,1,2.626-.232,11.716,11.716,0,0,0,6.384-1.193c1.382-.88,2.435.427,3.1,1.876a11.1,11.1,0,0,1,.731,2.621c.04.225.076.455.107.693.016.109.035.218.047.33.135.961.227,1.975.332,2.932C383.568,378.1,383.257,381.286,381.754,382.856Z" transform="translate(-365.75 -367.035)" fill="#f3b6ab"/>
      <path id="Path_352" data-name="Path 352" d="M374.127,384.082c-.306-.073-.626-.159-.954-.259-.282-.09-.546-.185-.8-.291a5.657,5.657,0,0,1-3.65-4.905c-2.881-.194-3.567-5.327-2.505-5.39a1.058,1.058,0,0,1,.591.159,4.355,4.355,0,0,1,1.352,1.656,23.08,23.08,0,0,1,.372-5.256,2.467,2.467,0,0,1,1.447-1.772,12.292,12.292,0,0,0-.422,9.951A11.052,11.052,0,0,0,374.127,384.082Z" transform="translate(-365.75 -366.314)" fill="#f4948e"/>
    </g>
    <g id="Group_44" data-name="Group 44" transform="translate(525.709 377.93)">
      <path id="Path_353" data-name="Path 353" d="M459.467,377.863c-.009.078-.021.149-.035.214-.249,1.188-2.63,2.623-2.63,2.623a9.593,9.593,0,0,1-.294,1.774c-.064.22-.126.451-.206.686a10.738,10.738,0,0,1-.724,1.713,9.411,9.411,0,0,1-1.089,1.653,6.7,6.7,0,0,1-2.73,2.109,4.852,4.852,0,0,1-3.223-.041c-1.814-.567-3.194-1.817-4.757-5.26a28.268,28.268,0,0,1-2.3-8.937.443.443,0,0,1,.045-.213,7.4,7.4,0,0,0,8.391-.558,4.828,4.828,0,0,1,1.2-.9c.683-.322,1.305-.175,2.244.4,1.445.877,2.946,4.568,2.946,4.568s.5-3.256,1.752-3.507c.012,0,.022.005.033,0C459.248,374,459.639,376.589,459.467,377.863Z" transform="translate(-441.473 -372.56)" fill="#f3b6ab"/>
      <path id="Path_354" data-name="Path 354" d="M455.4,377.863c-.009.078-.021.149-.035.214-.249,1.188-2.63,2.623-2.63,2.623a9.594,9.594,0,0,1-.294,1.774c-.064.22-.126.451-.206.686a10.741,10.741,0,0,1-.724,1.713,23.131,23.131,0,0,0-1.155-6.778c-.787-2.436-1.6-4.065-3.311-5.369.683-.322,1.305-.175,2.244.4,1.445.877,2.946,4.568,2.946,4.568s.5-3.256,1.752-3.507c.012,0,.022.005.033,0C455.183,374,455.574,376.589,455.4,377.863Z" transform="translate(-437.408 -372.56)" fill="#f4948e"/>
    </g>
    <path id="Path_355" data-name="Path 355" d="M439.643,392.872l.073-.2-.073-.031Z" transform="translate(82.903 20.007)" fill="#132f6d"/>
    <path id="Path_356" data-name="Path 356" d="M351.06,437.824a2.521,2.521,0,0,0-3.593,0s-.334-2.1-3.175-2.587c-2.175-.377-3.692-.128-7.1,3.837-1.437,1.675-4.174,5.428-4.01,8.516.147,2.694,3.465,3.819,4.508,3.992a8.779,8.779,0,0,1,.171-3.138c-2.256-1-2.383-5.006-.878-5.006s1.944,2.754,1.944,2.754a9.7,9.7,0,0,1,2.754-4.885c2.191-1.94,3.633-1.94,5.262-1.442s2.443-.5,3.38,1.506a19.279,19.279,0,0,1,1.082,6.674l0,0a14.047,14.047,0,0,0,1.776-3.839A7.447,7.447,0,0,0,351.06,437.824Z" transform="translate(5.285 50.973)" fill="#171da5"/>
    <path id="Path_357" data-name="Path 357" d="M367.79,377.116a23.189,23.189,0,0,1,.377-5.256c.5-1.757,1.755-2.2,4.072-2a11.687,11.687,0,0,0,6.384-1.193c1.382-.878,2.433.427,3.1,1.878a11.068,11.068,0,0,1,.73,2.62l.052.031c.91-1.432-.074-3.666-1.032-5.123s-3.645-3.515-8.2-2.68-6.427,3.8-6.838,5.3a17.553,17.553,0,0,0,0,4.769A4.346,4.346,0,0,1,367.79,377.116Z" transform="translate(29.402)" fill="#030d72"/>
    <path id="Path_358" data-name="Path 358" d="M338.187,440.6c-.327.258,1.02.75,2.092,1.126s1.613.375,1.779,0-.259-.709-1.779-1.126S338.446,440.387,338.187,440.6Z" transform="translate(8.899 54.797)" fill="#171da5"/>
    <path id="Path_359" data-name="Path 359" d="M342.005,442.156c-.386-.1-.213-.78.916-.889a2.585,2.585,0,0,1,2.115.641l.014.247A9.769,9.769,0,0,1,342.005,442.156Z" transform="translate(11.584 55.448)" fill="#171da5"/>
    <path id="Path_360" data-name="Path 360" d="M368.487,371.2c-.334-.19.711-1.212,2.3-1.255s2.39,1.127,2.22,1.421-1.2-.339-2.606-.207S368.868,371.4,368.487,371.2Z" transform="translate(30.981 3.459)" fill="#030d72"/>
    <path id="Path_361" data-name="Path 361" d="M373.426,371.144c-.507-.2.335-1.335,1.465-1.67s2.36-.076,2.429.316-1.131.721-2.011.889S373.972,371.348,373.426,371.144Z" transform="translate(34.517 3.008)" fill="#030d72"/>
    <path id="Path_362" data-name="Path 362" d="M452.437,370.723a1.388,1.388,0,0,0-.826-.82,1.109,1.109,0,0,0-1.231.251,2.292,2.292,0,0,0-.522,1.041l.666.375a1.955,1.955,0,0,1,.778,1.35C452.432,373.023,452.826,371.67,452.437,370.723Z" transform="translate(90.349 3.374)" fill="#0c1498"/>
    <path id="Path_363" data-name="Path 363" d="M375.568,445.618h-12.1c0-2.073,1.727-5.265,1.727-5.265l.667.311,1.108.515Z" transform="translate(27.365 54.795)" fill="#6077f1"/>
    <path id="Path_364" data-name="Path 364" d="M332.935,476.585a5.974,5.974,0,0,1-.5,2.237c-.837,1.667-3.676,6.425-3.676,6.425l-.211-3.835-.287-5.178,4.587-1.841A11.741,11.741,0,0,1,332.935,476.585Z" transform="translate(1.699 79.612)" fill="#233fe3"/>
    <path id="Path_365" data-name="Path 365" d="M368.758,465.124l.579,1.415-29.961.336.922-1.329Z" transform="translate(9.802 72.854)" fill="#aebdf4"/>
    <path id="Path_366" data-name="Path 366" d="M343.138,466.276l-.431,0-4.75,5.019-3.15,3.334,4.515.014c2.557-1.269,5.147-2.479,7.293-3.339,6.069-2.428,18.539-6.894,23.451-2.8l2.6-2.561Z" transform="translate(6.471 73.451)" fill="#d5dcff"/>
    <path id="Path_367" data-name="Path 367" d="M373.953,452.183l-2.808,11.261-2.776,11.114-28.458.424.257-1.474,3.691-21.324Z" transform="translate(10.192 63.419)" fill="#d5dcff"/>
    <g id="Group_45" data-name="Group 45" transform="translate(508.561 412.083)">
      <path id="Path_368" data-name="Path 368" d="M446.873,404.641h15.589v-1.4l-16.034-.269Z" transform="translate(-420.712 -384.541)" fill="#a8c9ff"/>
      <path id="Path_369" data-name="Path 369" d="M457.715,412.416l-21.244.331-.427-1.624-.069-.253-2.072-7.843-2.349-8.9,14.168-1.181,7.657-.636.893,4.137,3.056,14.172.025.12.029.128Z" transform="translate(-431.555 -392.312)" fill="#d5dcff"/>
    </g>
    <g id="Group_46" data-name="Group 46" transform="translate(342.522 495.352)">
      <path id="Path_370" data-name="Path 370" d="M336.319,444.064l-.026,0a.134.134,0,0,1-.1-.15,5.867,5.867,0,0,0-.655-3.258.124.124,0,0,1,.054-.169.126.126,0,0,1,.168.055,6.009,6.009,0,0,1,.68,3.423A.124.124,0,0,1,336.319,444.064Z" transform="translate(-335.526 -440.471)" fill="#0c1498"/>
    </g>
    <g id="Group_47" data-name="Group 47" transform="translate(342.589 496.57)">
      <path id="Path_371" data-name="Path 371" d="M336.334,442.515a.142.142,0,0,1-.05-.012q-.685-.3-.718-.7a.769.769,0,0,1,.356-.607.134.134,0,0,1,.176.038.129.129,0,0,1-.041.175c-.071.045-.256.206-.244.372s.211.339.571.5a.126.126,0,0,1-.05.24Z" transform="translate(-335.565 -441.175)" fill="#0c1498"/>
    </g>
    <g id="Group_48" data-name="Group 48" transform="translate(351.584 498.1)">
      <path id="Path_372" data-name="Path 372" d="M342.584,447.952a.134.134,0,0,1-.059-.014,7.105,7.105,0,0,1-1.738-1.357.12.12,0,0,1,.036-.168.122.122,0,0,1,.171.035,6.162,6.162,0,0,0,1.53,1.2c.408-1.207-.121-5.116-.271-5.374a.117.117,0,0,1-.012-.166.142.142,0,0,1,.187-.017c.313.239.763,4.783.27,5.8a.114.114,0,0,1-.074.064A.1.1,0,0,1,342.584,447.952Z" transform="translate(-340.768 -442.061)" fill="#0c1498"/>
    </g>
    <path id="Path_373" data-name="Path 373" d="M339.458,445.4c.123-.083,3.633,1.8,3.633,1.8a2.442,2.442,0,0,1-2.588.539C338.872,447.194,339.458,445.4,339.458,445.4Z" transform="translate(9.788 58.47)" fill="#fff"/>
    <g id="Group_49" data-name="Group 49" transform="translate(342.679 509.122)">
      <path id="Path_374" data-name="Path 374" d="M339.481,450.416c.092.035.185.062.28.088-3.09,2.611-3.2,2.611-3.258,2.611-.135,0-.228,0-.887-4.6.08-.028.159-.057.24-.081.242,1.656.574,3.825.711,4.368C336.978,452.507,338.4,451.328,339.481,450.416Z" transform="translate(-335.617 -448.435)" fill="#d5dcff"/>
      <path id="Path_375" data-name="Path 375" d="M342.1,448.709l-.308,5.094a.134.134,0,0,1-.079.107.139.139,0,0,1-.047.005.12.12,0,0,1-.09-.038l-3.3-3.467a2.7,2.7,0,0,0,.335-.007l2.952,3.093.294-4.841C341.938,448.676,342.016,448.691,342.1,448.709Z" transform="translate(-333.68 -448.275)" fill="#d5dcff"/>
    </g>
    <g id="Group_50" data-name="Group 50" transform="translate(333.422 521.695)">
      <path id="Path_376" data-name="Path 376" d="M337.777,470.717a34.985,34.985,0,0,1-6.833-.61.13.13,0,0,1-.093-.147c1.24-6.062-.189-13.4-.571-14.068a.125.125,0,0,1,.216-.126c.5.865,1.781,8.275.622,14.121a38.412,38.412,0,0,0,11.8.242.128.128,0,0,1,.142.109.121.121,0,0,1-.109.138A38.867,38.867,0,0,1,337.777,470.717Z" transform="translate(-330.263 -455.706)" fill="#d5dcff"/>
    </g>
    <g id="Group_51" data-name="Group 51" transform="translate(363.554 522.654)">
      <path id="Path_377" data-name="Path 377" d="M350.444,463.651a.133.133,0,0,1-.1-.047l-2.628-3.252a.116.116,0,0,1,.016-.168l4.317-3.892a.145.145,0,0,1,.1-.031.141.141,0,0,1,.09.057l2.569,3.89a.127.127,0,0,1-.031.166l-4.257,3.251A.122.122,0,0,1,350.444,463.651Zm-2.455-3.363,2.479,3.062,4.067-3.105-2.422-3.666Z" transform="translate(-347.69 -456.261)" fill="#0c1498"/>
    </g>
    <g id="Group_52" data-name="Group 52" transform="translate(331.14 540.805)">
      <path id="Path_378" data-name="Path 378" d="M333.824,469.59a41,41,0,0,1-4.767-.28.119.119,0,0,1-.112-.133.127.127,0,0,1,.138-.112c11.3,1.274,16.314-2.243,16.364-2.282a.127.127,0,0,1,.175.029.133.133,0,0,1-.033.18C345.55,467.018,341.879,469.59,333.824,469.59Z" transform="translate(-328.944 -466.759)" fill="#d5dcff"/>
    </g>
    <g id="Group_53" data-name="Group 53" transform="translate(334.426 540.279)">
      <path id="Path_379" data-name="Path 379" d="M330.967,480.31a.125.125,0,0,1-.109-.064.136.136,0,0,1,.045-.171c.081-.043,7.864-4.483,13.179-6.857a71.8,71.8,0,0,1,12.02-4.8c4.841-1.276,13.853-3.645,17.247-.109a.127.127,0,1,1-.182.178c-3.292-3.432-12.212-1.088-17,.173a71.866,71.866,0,0,0-11.972,4.779c-5.313,2.374-13.084,6.8-13.163,6.849A.115.115,0,0,1,330.967,480.31Z" transform="translate(-330.844 -466.455)" fill="#0c1498"/>
    </g>
    <g id="Group_54" data-name="Group 54" transform="translate(339.364 549.395)">
      <path id="Path_380" data-name="Path 380" d="M335.971,480.739a7.587,7.587,0,0,1-2.2-.178.124.124,0,0,1-.05-.169.125.125,0,0,1,.173-.052c.36.2,4.226.4,12.849-.775,10.656-1.459,15.109-3.868,19.6-7.809a.131.131,0,0,1,.178.01.129.129,0,0,1-.014.178c-5.865,5.149-11.457,6.738-19.725,7.866A84.02,84.02,0,0,1,335.971,480.739Z" transform="translate(-333.7 -471.727)" fill="#0c1498"/>
    </g>
    <g id="Group_55" data-name="Group 55" transform="translate(356.044 556.532)">
      <path id="Path_381" data-name="Path 381" d="M345.462,479.8a.122.122,0,0,1-.119-.086,11.765,11.765,0,0,0-1.949-3.643.125.125,0,0,1-.022-.171.133.133,0,0,1,.183-.022,11.638,11.638,0,0,1,2.025,3.764.124.124,0,0,1-.081.154A.092.092,0,0,1,345.462,479.8Z" transform="translate(-343.347 -475.855)" fill="#0c1498"/>
    </g>
    <g id="Group_56" data-name="Group 56" transform="translate(351.604 563.36)">
      <path id="Path_382" data-name="Path 382" d="M342.1,480.223a3.271,3.271,0,0,1-1.267-.19.132.132,0,0,1-.035-.175.129.129,0,0,1,.176-.033,4.166,4.166,0,0,0,2.265-.012.126.126,0,0,1,.163.074.121.121,0,0,1-.076.156A3.737,3.737,0,0,1,342.1,480.223Z" transform="translate(-340.779 -479.804)" fill="#0c1498"/>
    </g>
    <g id="Group_57" data-name="Group 57" transform="translate(395.336 375.991)">
      <path id="Path_383" data-name="Path 383" d="M367.655,374.673a.125.125,0,0,1-.121-.116,6.535,6.535,0,0,0-1.432-2.915.119.119,0,0,1,.014-.173.127.127,0,0,1,.176.012,6.653,6.653,0,0,1,1.489,3.053.128.128,0,0,1-.112.137Z" transform="translate(-366.071 -371.439)" fill="#0c1498"/>
    </g>
    <g id="Group_58" data-name="Group 58" transform="translate(395.7 377.277)">
      <path id="Path_384" data-name="Path 384" d="M367.051,373.817a.747.747,0,0,1-.7-.358c-.292-.539.455-1.216.488-1.245a.12.12,0,0,1,.173.01.125.125,0,0,1-.009.175c-.175.161-.6.636-.434.941.2.365.837.18.842.178a.122.122,0,0,1,.154.081.124.124,0,0,1-.083.156A1.559,1.559,0,0,1,367.051,373.817Z" transform="translate(-366.282 -372.182)" fill="#0c1498"/>
    </g>
    <g id="Group_59" data-name="Group 59" transform="translate(407.668 374.771)">
      <path id="Path_385" data-name="Path 385" d="M373.732,375.417a.116.116,0,0,1-.074-.022.144.144,0,0,1-.054-.09l-.4-3.588a.125.125,0,0,1,.1-.137l3.448-.842a.109.109,0,0,1,.107.024.131.131,0,0,1,.048.1v3.882a.133.133,0,0,1-.1.126l-3.05.543Zm-.266-3.617.372,3.346,2.817-.5v-3.622Z" transform="translate(-373.204 -370.733)" fill="#0c1498"/>
    </g>
    <g id="Group_60" data-name="Group 60" transform="translate(405.187 375.614)">
      <path id="Path_386" data-name="Path 386" d="M371.9,371.845a.128.128,0,0,1-.126-.105.126.126,0,0,1,.105-.142l2.48-.377a.124.124,0,0,1,.143.1.131.131,0,0,1-.105.145l-2.479.374Z" transform="translate(-371.768 -371.221)" fill="#0c1498"/>
    </g>
    <g id="Group_61" data-name="Group 61" transform="translate(406.296 374.773)">
      <path id="Path_387" data-name="Path 387" d="M374.433,377.336a.107.107,0,0,1-.047-.009,19.944,19.944,0,0,0-1.881-.662.124.124,0,1,1,.062-.24c.6.161,1.4.467,1.745.6a19.662,19.662,0,0,0-.24-2.716c-.273-1.859-.47-3.417-.472-3.434a.125.125,0,0,1,.111-.14.124.124,0,0,1,.138.109c0,.019.2,1.577.474,3.427a17.394,17.394,0,0,1,.237,2.943.119.119,0,0,1-.057.1A.115.115,0,0,1,374.433,377.336Z" transform="translate(-372.41 -370.734)" fill="#0c1498"/>
    </g>
    <g id="Group_62" data-name="Group 62" transform="translate(411.118 373.853)">
      <path id="Path_388" data-name="Path 388" d="M376.095,370.532l-.676.8a.13.13,0,0,1-.092.042.125.125,0,0,1-.1-.206l.816-.965C376.063,370.311,376.082,370.42,376.095,370.532Z" transform="translate(-375.199 -370.202)" fill="#0c1498"/>
    </g>
    <g id="Group_63" data-name="Group 63" transform="translate(405.566 382.546)">
      <path id="Path_389" data-name="Path 389" d="M372.818,376.449a4.615,4.615,0,0,1-.73-.054.128.128,0,0,1-.1-.149.117.117,0,0,1,.143-.1c.019,0,2.03.341,3.054-.877a.121.121,0,0,1,.176-.014.116.116,0,0,1,.017.173A3.291,3.291,0,0,1,372.818,376.449Z" transform="translate(-371.988 -375.23)" fill="#d84444"/>
    </g>
    <g id="Group_64" data-name="Group 64" transform="translate(414.326 375.195)">
      <path id="Path_390" data-name="Path 390" d="M380.306,371.208a21.575,21.575,0,0,1-2.163,1.24c.382-.332.752-.614.752-.614a12.342,12.342,0,0,1-1.841.871,24.745,24.745,0,0,0,3.109-1.7.117.117,0,0,1,.169.033A.125.125,0,0,1,380.306,371.208Z" transform="translate(-377.054 -370.978)" fill="#0c1498"/>
    </g>
    <g id="Group_65" data-name="Group 65" transform="translate(414.741 376.948)">
      <path id="Path_391" data-name="Path 391" d="M380.016,372.172a.132.132,0,0,1-.137.109,8.51,8.51,0,0,0-2.585.124,3.684,3.684,0,0,1,.261-.3,9.032,9.032,0,0,1,2.351-.067A.125.125,0,0,1,380.016,372.172Z" transform="translate(-377.294 -371.992)" fill="#0c1498"/>
    </g>
    <g id="Group_66" data-name="Group 66" transform="translate(389.85 395.153)">
      <path id="Path_392" data-name="Path 392" d="M363.024,398.584a.162.162,0,0,1-.047-.007.123.123,0,0,1-.069-.161,25.834,25.834,0,0,1,2.426-3.474l.513-.674a41.59,41.59,0,0,0,2.429-3.711c.783-1.905.1-6.354-.752-7.852a.124.124,0,0,1,.048-.171.128.128,0,0,1,.169.05c.87,1.532,1.575,6.107.759,8.08a39.793,39.793,0,0,1-2.457,3.754l-.512.671a26.317,26.317,0,0,0-2.391,3.42A.125.125,0,0,1,363.024,398.584Z" transform="translate(-362.899 -382.521)" fill="#233fe3"/>
    </g>
    <g id="Group_67" data-name="Group 67" transform="translate(392.996 425.744)">
      <path id="Path_393" data-name="Path 393" d="M388.657,400.213a11.481,11.481,0,0,1-1.591,1.037,23.356,23.356,0,0,1-9.143,2.575c-.911.085-1.781.126-2.6.126a22.992,22.992,0,0,1-4.532-.437c-.088-.016-.182-.033-.266-.054a16.476,16.476,0,0,1-5.206-2,6.049,6.049,0,0,1-.553-.384.12.12,0,0,1-.017-.178.124.124,0,0,1,.176-.014c.005,0,.159.128.467.323a15.885,15.885,0,0,0,5.3,2.035c.083.021.171.033.263.054a24.182,24.182,0,0,0,6.946.282c5.531-.534,8.721-2.208,10.3-3.341h0Q388.431,400.218,388.657,400.213Z" transform="translate(-364.718 -400.213)" fill="#6077f1"/>
    </g>
    <g id="Group_68" data-name="Group 68" transform="translate(392.662 426.935)">
      <path id="Path_394" data-name="Path 394" d="M372.164,400.954a10.422,10.422,0,0,1-1.067,1.836c-.054.067-.1.147-.164.221a7.336,7.336,0,0,1-3.107,2.421,11.407,11.407,0,0,1-3.3.854c.01-.085.021-.173.031-.256a11.491,11.491,0,0,0,3.18-.828,7.135,7.135,0,0,0,2.931-2.244c.055-.076.112-.147.168-.221a10.4,10.4,0,0,0,1.081-1.835C372,400.918,372.081,400.937,372.164,400.954Z" transform="translate(-364.525 -400.902)" fill="#6077f1"/>
    </g>
    <g id="Group_69" data-name="Group 69" transform="translate(391.406 431.315)">
      <path id="Path_395" data-name="Path 395" d="M364.951,468.223a.13.13,0,0,1-.124-.114c-.007-.1-.9-9.468-1.024-19.215-.118-9.358,2.023-12.683,2.3-13.068.007-.671.1-9.349.332-13.575.247-4.378,1.513-18.56,1.523-18.7a.127.127,0,0,1,.135-.112.125.125,0,0,1,.118.133c-.012.142-1.274,14.323-1.523,18.7s-.334,13.513-.335,13.6a.118.118,0,0,1-.024.073c-.024.033-2.391,3.27-2.272,12.951.126,9.735,1.015,19.1,1.024,19.193a.125.125,0,0,1-.114.138Z" transform="translate(-363.798 -403.435)" fill="#6077f1"/>
    </g>
    <g id="Group_70" data-name="Group 70" transform="translate(414.578 436.647)">
      <path id="Path_396" data-name="Path 396" d="M397.236,407.273a78.57,78.57,0,0,0-2.249,10.167c-.564,3.436-.837,6.23-.968,8.106q-.083-.506-.175-1.01c.159-1.816.42-4.252.9-7.139a80.41,80.41,0,0,1,2.225-10.1c-.328-.126-1.845-.527-7.617-.527a40.243,40.243,0,0,0-10.39,1.883c-.6.088-1.186.176-1.76.27,3.664-1.16,8.459-2.4,12.15-2.4,6.9,0,7.807.59,7.846.614A.125.125,0,0,1,397.236,407.273Z" transform="translate(-377.2 -406.519)" fill="#6077f1"/>
    </g>
    <g id="Group_71" data-name="Group 71" transform="translate(423.023 380.978)">
      <path id="Path_397" data-name="Path 397" d="M386.075,374.513a5.719,5.719,0,0,1-2.153,3.408,10.479,10.479,0,0,1-1.7,1.153c-.05-.076-.1-.15-.137-.221,1.069-.581,3.479-2.141,3.764-4.53C385.917,374.38,385.99,374.446,386.075,374.513Z" transform="translate(-382.084 -374.323)" fill="#233fe3"/>
    </g>
    <g id="Group_72" data-name="Group 72" transform="translate(391.67 421.075)">
      <path id="Path_398" data-name="Path 398" d="M366.6,397.74a22.226,22.226,0,0,0-2.445,4.445c-.062-.052-.128-.116-.2-.18a21.123,21.123,0,0,1,2.521-4.492C366.517,397.592,366.555,397.67,366.6,397.74Z" transform="translate(-363.951 -397.513)" fill="#233fe3"/>
    </g>
    <path id="Path_399" data-name="Path 399" d="M374.468,380.394l-2.021,2.21-2.009-1.988,1.264-1.589a.906.906,0,0,0,.14.019.42.42,0,0,0,.105.01.826.826,0,0,0,.185,0,1.751,1.751,0,0,0,.2-.019h.005Z" transform="translate(32.448 10.084)" fill="#0c1498"/>
    <path id="Path_400" data-name="Path 400" d="M371.2,380.834s1.442,13.959,1.566,19.64-.782,14.362-.782,14.362l2.747,2.709,2.924-3.629s-.339-11.146-1.38-17.91-3.467-15.491-3.467-15.491l-.918,1Z" transform="translate(33.004 11.17)" fill="#0c1498"/>
    <g id="Group_73" data-name="Group 73" transform="translate(530.479 385.491)">
      <path id="Path_401" data-name="Path 401" d="M444.857,381.837a.162.162,0,0,1-.055-.014.121.121,0,0,1-.069-.109c-.041-1.6-.495-4.608-.5-4.637a.119.119,0,0,1,.1-.142.122.122,0,0,1,.145.1c0,.028.412,2.758.491,4.418a5.79,5.79,0,0,0,1.236-1.354.122.122,0,0,1,.169-.047.124.124,0,0,1,.048.169,6.562,6.562,0,0,1-1.494,1.582A.124.124,0,0,1,444.857,381.837Z" transform="translate(-444.231 -376.933)" fill="#0c1498"/>
    </g>
    <path id="Path_402" data-name="Path 402" d="M445.558,380.952l3.223-1.546s.533,2.006-.97,2.587A1.832,1.832,0,0,1,445.558,380.952Z" transform="translate(87.215 10.361)" fill="#fff"/>
    <g id="Group_74" data-name="Group 74" transform="translate(541.25 380.54)">
      <path id="Path_403" data-name="Path 403" d="M450.584,377.117h-.01a.123.123,0,0,1-.112-.133,4.853,4.853,0,0,1,1.086-2.879.126.126,0,0,1,.178,0,.124.124,0,0,1,0,.176,4.544,4.544,0,0,0-1.015,2.72A.126.126,0,0,1,450.584,377.117Z" transform="translate(-450.461 -374.07)" fill="#0c1498"/>
    </g>
    <g id="Group_75" data-name="Group 75" transform="translate(541.322 381.47)">
      <path id="Path_404" data-name="Path 404" d="M450.626,376.132a.116.116,0,0,1-.1-.055.13.13,0,0,1,.036-.176,3.646,3.646,0,0,0,.972-.9c.035-.067.036-.1.033-.109a.688.688,0,0,0-.4,0,.127.127,0,0,1-.15-.093.131.131,0,0,1,.1-.154c.119-.021.514-.093.659.1.052.069.086.185-.014.38a3.813,3.813,0,0,1-1.055,1A.144.144,0,0,1,450.626,376.132Z" transform="translate(-450.502 -374.607)" fill="#0c1498"/>
    </g>
    <g id="Group_76" data-name="Group 76" transform="translate(530.049 404.588)">
      <path id="Path_405" data-name="Path 405" d="M448.474,398.71c-1.726,0-3.558-2.926-4.183-4.613-.723-1.959.04-5.773.126-6.038a.124.124,0,0,1,.159-.074.129.129,0,0,1,.081.157c-.078.221-.825,4-.128,5.874s2.73,4.928,4.34,4.378a.126.126,0,0,1,.08.239A1.506,1.506,0,0,1,448.474,398.71Z" transform="translate(-443.983 -387.978)" fill="#0c1498"/>
    </g>
    <g id="Group_77" data-name="Group 77" transform="translate(546.177 405.671)">
      <path id="Path_406" data-name="Path 406" d="M453.434,397.059a.125.125,0,0,1-.017-.249c.033-.007,3.159-.5,4.1-2.116a30.511,30.511,0,0,1,.258-5.99.124.124,0,0,1,.149-.1.127.127,0,0,1,.1.145,30.8,30.8,0,0,0-.251,5.969.133.133,0,0,1-.017.069c-.979,1.736-4.162,2.246-4.295,2.269Z" transform="translate(-453.31 -388.604)" fill="#0c1498"/>
    </g>
    <g id="Group_78" data-name="Group 78" transform="translate(548.055 411.957)">
      <path id="Path_407" data-name="Path 407" d="M454.522,402.549a.118.118,0,0,1-.107-.057.124.124,0,0,1,.041-.173c.022-.017,2.457-1.516,3.475-2.343l-1.337-7.587a.122.122,0,0,1,.1-.145.118.118,0,0,1,.144.1l1.352,7.66a.134.134,0,0,1-.042.118c-1,.83-3.462,2.346-3.565,2.414A.164.164,0,0,1,454.522,402.549Z" transform="translate(-454.396 -392.24)" fill="#0c1498"/>
    </g>
    <g id="Group_79" data-name="Group 79" transform="translate(512.981 430.392)">
      <path id="Path_408" data-name="Path 408" d="M455.52,403.149h-.078l-21.262.253-.069-.253,21.355-.248.025.12Z" transform="translate(-434.111 -402.901)" fill="#0c1498"/>
    </g>
    <g id="Group_80" data-name="Group 80" transform="translate(521.308 435.023)">
      <path id="Path_409" data-name="Path 409" d="M443.735,413.126a.124.124,0,0,1-.118-.085,25.56,25.56,0,0,0-4.658-7.25.129.129,0,0,1,.007-.178.125.125,0,0,1,.176.007,25.854,25.854,0,0,1,4.708,7.336.123.123,0,0,1-.069.161A.14.14,0,0,1,443.735,413.126Z" transform="translate(-438.927 -405.58)" fill="#d5dcff"/>
    </g>
    <g id="Group_81" data-name="Group 81" transform="translate(514.485 437.904)">
      <path id="Path_410" data-name="Path 410" d="M442.227,432.2a.128.128,0,0,1-.121-.088c-.073-.247-7.061-24.509-7.12-24.71a.125.125,0,0,1,.083-.156.128.128,0,0,1,.157.085c.059.2,6.832,23.709,7.122,24.71a.126.126,0,0,1-.086.156A.121.121,0,0,1,442.227,432.2Z" transform="translate(-434.981 -407.246)" fill="#d5dcff"/>
    </g>
    <g id="Group_82" data-name="Group 82" transform="translate(526.439 375.823)">
      <path id="Path_411" data-name="Path 411" d="M442.716,373.846a.109.109,0,0,1-.038-.007,1.1,1.1,0,0,1-.771-.892,2.232,2.232,0,0,1,.527-1.58.126.126,0,0,1,.15.2,2,2,0,0,0-.424,1.366.838.838,0,0,0,.6.667.126.126,0,0,1-.045.244Z" transform="translate(-441.895 -371.342)" fill="#0c1498"/>
    </g>
    <g id="Group_83" data-name="Group 83" transform="translate(531.46 373.055)">
      <path id="Path_412" data-name="Path 412" d="M444.922,371.38a.117.117,0,0,1-.121-.1c-.007-.042-.026-.147.415-.578.263-.254,1.176-1.082,1.883-.942a.127.127,0,0,1-.048.249c-.719-.14-1.911,1.074-2.006,1.267a.123.123,0,0,1-.1.105Z" transform="translate(-444.799 -369.741)" fill="#0c1498"/>
    </g>
    <g id="Group_84" data-name="Group 84" transform="translate(530.731 377.534)">
      <path id="Path_413" data-name="Path 413" d="M444.678,373.337a1.041,1.041,0,0,1-.214-.016.123.123,0,0,1-.081-.154.121.121,0,0,1,.152-.086c.143.036,1.528-.005,1.992-.7a.124.124,0,1,1,.206.138A2.628,2.628,0,0,1,444.678,373.337Z" transform="translate(-444.377 -372.331)" fill="#0c1498"/>
    </g>
    <g id="Group_85" data-name="Group 85" transform="translate(545.715 371.106)">
      <path id="Path_414" data-name="Path 414" d="M454.257,371.2a.164.164,0,0,1-.059-.016.121.121,0,0,1-.052-.168c.213-.432-.546-1.58-1.074-2.2a.123.123,0,0,1,.014-.175.124.124,0,0,1,.178.012c.154.176,1.465,1.753,1.1,2.473A.119.119,0,0,1,454.257,371.2Z" transform="translate(-453.043 -368.614)" fill="#0c1498"/>
    </g>
    <g id="Group_86" data-name="Group 86" transform="translate(548.011 373.752)">
      <path id="Path_415" data-name="Path 415" d="M454.5,373.194a.126.126,0,0,1-.079-.223c.785-.647,1-2.7,1-2.716a.123.123,0,1,1,.244.024c-.005.086-.22,2.172-1.086,2.888A.131.131,0,0,1,454.5,373.194Z" transform="translate(-454.371 -370.144)" fill="#0c1498"/>
    </g>
    <g id="Group_87" data-name="Group 87" transform="translate(546.218 378.619)">
      <path id="Path_416" data-name="Path 416" d="M455.253,374.586a1.758,1.758,0,0,1-1.919-1.49.125.125,0,0,1,.249-.024,1.493,1.493,0,0,0,1.67,1.262.125.125,0,0,1,.124.126A.123.123,0,0,1,455.253,374.586Z" transform="translate(-453.334 -372.958)" fill="#0c1498"/>
    </g>
    <g id="Group_88" data-name="Group 88" transform="translate(549.057 383.756)">
      <path id="Path_417" data-name="Path 417" d="M455.1,378.1a.121.121,0,0,1-.088-.036.123.123,0,0,1,0-.18,3.566,3.566,0,0,0,1.088-1.845.128.128,0,0,1,.14-.109.121.121,0,0,1,.109.138,3.73,3.73,0,0,1-1.164,2A.122.122,0,0,1,455.1,378.1Z" transform="translate(-454.975 -375.93)" fill="#0c1498"/>
    </g>
    <path id="Path_418" data-name="Path 418" d="M446.337,377.014c-.6.107-.856-.543.164-1.174s2.55-.875,2.67-.666S447.482,376.8,446.337,377.014Z" transform="translate(87.399 7.223)" fill="#375afe"/>
    <path id="Path_419" data-name="Path 419" d="M442,376.745a2.45,2.45,0,0,1,1.983-.621c1.274.062,1.376.546,1.274.878s-.545.232-1.795.145S442,376.745,442,376.745Z" transform="translate(84.619 7.965)" fill="#375afe"/>
    <path id="Path_420" data-name="Path 420" d="M444.384,378.263c.284.64.315,1.241.076,1.347s-.657-.327-.939-.966-.32-1.24-.083-1.347S444.1,377.626,444.384,378.263Z" transform="translate(85.557 8.812)" fill="#0c1498"/>
    <path id="Path_421" data-name="Path 421" d="M447.4,377.59c.285.636.32,1.238.081,1.343s-.66-.327-.944-.965-.315-1.241-.073-1.349S447.114,376.946,447.4,377.59Z" transform="translate(87.757 8.318)" fill="#0c1498"/>
    <path id="Path_422" data-name="Path 422" d="M371.311,372.793c-.04.754-.278,1.354-.534,1.34s-.432-.638-.393-1.385.273-1.359.533-1.345S371.349,372.036,371.311,372.793Z" transform="translate(32.405 4.526)" fill="#0c1498"/>
    <path id="Path_423" data-name="Path 423" d="M374.829,372.44c-.042.756-.282,1.356-.534,1.345s-.434-.634-.4-1.39.278-1.354.536-1.343S374.864,371.687,374.829,372.44Z" transform="translate(34.968 4.27)" fill="#0c1498"/>
    <path id="Path_424" data-name="Path 424" d="M340.661,443.24c-.069.68-.289,1.21-.491,1.191s-.31-.588-.24-1.264.289-1.21.489-1.191S340.729,442.561,340.661,443.24Z" transform="translate(10.191 55.978)" fill="#0c1498"/>
    <path id="Path_425" data-name="Path 425" d="M343.571,443.608c-.067.681-.285,1.214-.486,1.195s-.309-.586-.242-1.266.289-1.21.488-1.19S343.641,442.932,343.571,443.608Z" transform="translate(12.315 56.248)" fill="#0c1498"/>
    <g id="Group_89" data-name="Group 89" transform="translate(393.867 405.292)">
      <path id="Path_426" data-name="Path 426" d="M367.337,398.161a.13.13,0,0,1-.125-.105c-.514-2.908-1.976-9.453-1.988-9.518a.127.127,0,0,1,.1-.149.121.121,0,0,1,.149.1c.014.064,1.477,6.617,2,9.531a.132.132,0,0,1-.1.145Z" transform="translate(-365.221 -388.385)" fill="#233fe3"/>
    </g>
    <g id="Group_90" data-name="Group 90" transform="translate(417.274 399.529)">
      <path id="Path_427" data-name="Path 427" d="M379.736,390.505a.128.128,0,0,1-.126-.111,36.736,36.736,0,0,0-.778-4.708c-.062-.159-.13-.387.007-.536.2-.208.643-.054,1.254.152.23.074.47.159.7.22l.213.061c6.083,1.684,11.042,1.912,13.957.642a.121.121,0,0,1,.164.067.125.125,0,0,1-.062.163c-2.969,1.3-7.988,1.065-14.126-.633l-.213-.057c-.235-.064-.477-.145-.712-.223-.361-.124-.906-.309-.994-.216-.016.017-.026.092.045.273a35.98,35.98,0,0,1,.8,4.767.127.127,0,0,1-.109.14Z" transform="translate(-378.759 -385.052)" fill="#233fe3"/>
    </g>
    <g id="Group_91" data-name="Group 91" transform="translate(331.661 545.528)">
      <path id="Path_428" data-name="Path 428" d="M330.243,477.281a.113.113,0,0,1-.109-.066c-1.375-2.514-.747-7.582-.738-7.627a.122.122,0,0,1,.147-.1.126.126,0,0,1,.1.145c-.012.045-.628,5.007.707,7.459a.124.124,0,0,1-.05.169A.084.084,0,0,1,330.243,477.281Z" transform="translate(-329.245 -469.49)" fill="#0c1498"/>
    </g>
    <g id="Group_92" data-name="Group 92" transform="translate(346.096 536.122)">
      <path id="Path_429" data-name="Path 429" d="M341.748,465.905a1.194,1.194,0,0,1-.149.424c-.246.436-2.343,2.83-2.343,2.83s-.135-.98-.306-1.923a10.358,10.358,0,0,0-.365-1.5,7.153,7.153,0,0,0-.993-1.56,4.726,4.726,0,0,1,4.2,1.034A2.651,2.651,0,0,1,341.748,465.905Z" transform="translate(-337.593 -464.05)" fill="#f3b6ab"/>
      <path id="Path_430" data-name="Path 430" d="M341.176,465.123a1.194,1.194,0,0,1-.149.424c-.246.436-2.343,2.83-2.343,2.83s-.135-.98-.306-1.923A11.515,11.515,0,0,0,341.176,465.123Z" transform="translate(-337.021 -463.268)" fill="#f4948e"/>
    </g>
    <g id="Group_93" data-name="Group 93" transform="translate(392.557 422.33)">
      <path id="Path_431" data-name="Path 431" d="M368.242,401.012c.23.166,2.217,1.646,1.862,2.177-.368.546-2.754-.861-2.881-.937.111.081,1.684,1.267,1.5,1.75s-1.935-.519-2.115-.617c.121.086.9.645,1,1.2a.526.526,0,0,1-.076.413c-.436.693-2.319-1.442-3.069-2.751,0,0,.208-.432.481-.97.2-.4.436-.851.652-1.228.5-.873,1.188-1.814,1.188-1.814s3.754,2.255,3.944,2.756S369.617,401.932,368.242,401.012Z" transform="translate(-364.464 -398.239)" fill="#f3b6ab"/>
      <path id="Path_432" data-name="Path 432" d="M367.533,403.719c-.436.693-2.319-1.442-3.069-2.751,0,0,.208-.432.481-.97a15.149,15.149,0,0,0,2.664,3.308A.526.526,0,0,1,367.533,403.719Z" transform="translate(-364.464 -396.957)" fill="#f4948e"/>
    </g>
    <g id="Group_94" data-name="Group 94" transform="translate(535.996 388.531)">
      <path id="Path_433" data-name="Path 433" d="M451.966,378.691v7.437c0,1.255-1.694,6.826-1.694,6.826s-.621-3.131-1.062-4.451c-.263-.788-.858-2.192-1.331-3.289-.176-.408-.341-.773-.456-1.048a6.7,6.7,0,0,0,2.73-2.109A10.123,10.123,0,0,0,451.966,378.691Z" transform="translate(-447.422 -378.691)" fill="#f3b6ab"/>
      <path id="Path_434" data-name="Path 434" d="M451.966,378.691v4.8a14.531,14.531,0,0,1-4.087,1.727c-.176-.408-.341-.773-.456-1.048a6.7,6.7,0,0,0,2.73-2.109A10.123,10.123,0,0,0,451.966,378.691Z" transform="translate(-447.422 -378.691)" fill="#f4948e"/>
    </g>
    <path id="Path_435" data-name="Path 435" d="M371.145,458.695l-2.777,11.114-28.458.424.258-1.473C346.244,466.764,363.555,461.155,371.145,458.695Z" transform="translate(10.192 68.167)" fill="#aebdf4"/>
    <path id="Path_436" data-name="Path 436" d="M332.814,475.661a5.974,5.974,0,0,1-.5,2.237c-.837,1.667-3.676,6.425-3.676,6.425l-.211-3.835Z" transform="translate(1.82 80.536)" fill="#173acc"/>
    <g id="Group_95" data-name="Group 95" transform="translate(349.413 597.263)">
      <path id="Path_437" data-name="Path 437" d="M349.7,506.253l-7.939-1.756-2.247-.5,1.589-4.588,1.17.4,1.5.513Z" transform="translate(-339.512 -499.411)" fill="#233fe3"/>
      <path id="Path_438" data-name="Path 438" d="M341.758,504.5l-2.246-.5,1.589-4.587,1.169.4A13.527,13.527,0,0,0,341.758,504.5Z" transform="translate(-339.511 -499.411)" fill="#173acc"/>
    </g>
    <path id="Path_439" data-name="Path 439" d="M366.1,445.618h-2.633c0-2.073,1.727-5.265,1.727-5.265l.667.311A13.478,13.478,0,0,0,366.1,445.618Z" transform="translate(27.365 54.795)" fill="#4a67e5"/>
    <g id="Group_96" data-name="Group 96" transform="translate(433.242 466.822)">
      <path id="Path_440" data-name="Path 440" d="M398.262,427.236H387.994l.422-2.584.866-.314.991-.368Z" transform="translate(-387.994 -423.971)" fill="#6077f1"/>
      <path id="Path_441" data-name="Path 441" d="M389.943,427.08h-1.949l.422-2.583.866-.313A17.085,17.085,0,0,0,389.943,427.08Z" transform="translate(-387.994 -423.815)" fill="#4a67e5"/>
    </g>
    <g id="Group_97" data-name="Group 97" transform="translate(399.731 388.156)">
      <path id="Path_442" data-name="Path 442" d="M372.886,379.293a1.878,1.878,0,0,0,.287.048l-2.1,2.639a.114.114,0,0,1-.1.042h0a.12.12,0,0,1-.1-.047l-2.267-3.289c.093-.021.173-.045.261-.067l2.115,3.069Z" transform="translate(-368.613 -378.368)" fill="#233fe3"/>
      <path id="Path_443" data-name="Path 443" d="M375.793,378.51l-1.473,2.635a.116.116,0,0,1-.078.062.109.109,0,0,1-.1-.016l-2.723-1.734a1.349,1.349,0,0,0,.37-.059l2.376,1.513,1.363-2.438A2.059,2.059,0,0,1,375.793,378.51Z" transform="translate(-366.568 -378.474)" fill="#233fe3"/>
    </g>
    <g id="Group_98" data-name="Group 98" transform="translate(402.76 390.353)">
      <path id="Path_444" data-name="Path 444" d="M372.5,382.375a.117.117,0,0,1-.09-.041l-2.013-2.085a.125.125,0,1,1,.18-.175l1.918,1.988,1.926-2.275a.128.128,0,0,1,.175-.014.121.121,0,0,1,.012.176L372.6,382.33a.12.12,0,0,1-.092.045Z" transform="translate(-370.365 -379.745)" fill="#233fe3"/>
    </g>
    <g id="Group_99" data-name="Group 99" transform="translate(503.718 482.315)">
      <path id="Path_445" data-name="Path 445" d="M437.731,432.931v5.561a19.515,19.515,0,0,1-2.322.382c-2.943.354-6.655.456-6.655.456a95.765,95.765,0,0,0,7.928-5.593C437.332,433.24,437.731,432.931,437.731,432.931Z" transform="translate(-428.754 -432.931)" fill="#6077f1"/>
      <path id="Path_446" data-name="Path 446" d="M434.925,432.931v5.561a19.516,19.516,0,0,1-2.322.382,36.353,36.353,0,0,0,1.273-5.137C434.526,433.24,434.925,432.931,434.925,432.931Z" transform="translate(-425.948 -432.931)" fill="#4a67e5"/>
    </g>
    <g id="Group_100" data-name="Group 100" transform="translate(521.432 472.12)">
      <path id="Path_447" data-name="Path 447" d="M447.333,431.937c-.432.322-1.124.778-1.931,1.3-2.613,1.684-6.4,3.992-6.4,3.992l3.635-8.631,1.328-.975.809-.588Z" transform="translate(-438.999 -427.035)" fill="#6077f1"/>
      <path id="Path_448" data-name="Path 448" d="M445.241,431.937c-.432.322-1.124.778-1.931,1.3-.377-1.866-1.056-4.293-1.44-5.614l.809-.588Z" transform="translate(-436.907 -427.035)" fill="#4a67e5"/>
    </g>
    <path id="Path_449" data-name="Path 449" d="M454.273,396.449c-3.245,1.06-15.463,5-20.37,6.577l-2.348-8.9,14.168-1.179,7.658-.636Z" transform="translate(77.006 19.771)" fill="#aebdf4"/>
    <g id="Group_101" data-name="Group 101" transform="translate(519.193 419.573)">
      <path id="Path_450" data-name="Path 450" d="M438.98,400.655h0c-.742,0-1.276-1.679-1.276-2.808,0-.769.246-1.2.681-1.2.884,0,1.33,1.1,1.376,2.189.036.844-.18,1.772-.74,1.822Zm-.595-3.755c-.391,0-.431.661-.431.948,0,1.171.555,2.559,1.025,2.559v.125l.021-.125c.323-.031.546-.716.512-1.563C439.471,397.908,439.1,396.9,438.385,396.9Z" transform="translate(-437.704 -396.644)" fill="#0c1498"/>
    </g>
    <path id="Path_451" data-name="Path 451" d="M385.451,375.866a.46.46,0,1,1-.46-.463A.461.461,0,0,1,385.451,375.866Z" transform="translate(42.723 7.443)" fill="#233fe3"/>
    <path id="Path_452" data-name="Path 452" d="M364.167,399.3a.437.437,0,1,1-.437-.437A.433.433,0,0,1,364.167,399.3Z" transform="translate(27.24 24.547)" fill="#233fe3"/>
    <g id="Group_102" data-name="Group 102" transform="translate(396.736 375.615)">
      <path id="Path_453" data-name="Path 453" d="M374.874,375.481h-3.925a.126.126,0,0,1-.123-.13v-2.818l-3.842-.69a.125.125,0,1,1,.043-.246l3.916.707,4.487-1.081a.121.121,0,0,1,.15.14L375,375.372A.131.131,0,0,1,374.874,375.481Zm-3.8-.251h3.69l.541-3.716-4.231,1.013Z" transform="translate(-366.881 -371.221)" fill="#0c1498"/>
    </g>
  </g>
</svg>
